/* XPM */
static char *result[] = {
/* columns rows colors chars-per-pixel */
"64 64 225 2 ",
"   c #3C1316",
".  c #3A1F22",
"X  c #3C2529",
"o  c #3C3A38",
"O  c #4C0606",
"+  c #5B0607",
"@  c #46181B",
"#  c #57191D",
"$  c #69161A",
"%  c #7B0B0D",
"&  c #561F24",
"*  c #471D22",
"=  c #483837",
"-  c #5F3438",
";  c #5C3E3E",
":  c #553939",
">  c #562B30",
",  c #7A2526",
"<  c #782E33",
"1  c #643B3C",
"2  c #743436",
"3  c #6A272A",
"4  c #58433B",
"5  c #59563E",
"6  c #4F503C",
"7  c #63453C",
"8  c #69443E",
"9  c #60493E",
"0  c #4D3B41",
"q  c #563F45",
"w  c #5B3C45",
"e  c #5D3440",
"r  c #623D44",
"t  c #713F46",
"y  c #484745",
"u  c #4C4A4A",
"i  c #5C4942",
"p  c #5C434A",
"a  c #544E4B",
"s  c #564549",
"d  c #54524D",
"f  c #585847",
"g  c #4E4951",
"h  c #594E56",
"j  c #524D55",
"k  c #565451",
"l  c #595653",
"z  c #5C5A55",
"x  c #54535B",
"c  c #5B535B",
"v  c #5D5B5B",
"b  c #575853",
"n  c #624246",
"m  c #6D4541",
"M  c #654C42",
"N  c #63434B",
"B  c #614A4B",
"V  c #6A464E",
"C  c #74484A",
"Z  c #66524D",
"A  c #6C534B",
"S  c #625844",
"D  c #7A594E",
"F  c #694751",
"G  c #624D53",
"H  c #6D4A53",
"J  c #674750",
"K  c #744C55",
"L  c #635452",
"P  c #6A5555",
"I  c #6C535B",
"U  c #625C5B",
"Y  c #6A5A5C",
"T  c #675756",
"R  c #73535C",
"E  c #7A5C54",
"W  c #646349",
"Q  c #636457",
"!  c #63625D",
"~  c #6D6958",
"^  c #75735B",
"/  c #756A55",
"(  c #5C5C64",
")  c #5E5F69",
"_  c #575861",
"`  c #615E63",
"'  c #6C5A62",
"]  c #745D64",
"[  c #7B5C64",
"{  c #7F5F6A",
"}  c #5F6068",
"|  c #666362",
" . c #6B6464",
".. c #6A6965",
"X. c #63636D",
"o. c #69666A",
"O. c #6D6B6A",
"+. c #676867",
"@. c #726165",
"#. c #736A63",
"$. c #7B6B61",
"%. c #73656B",
"&. c #7D626A",
"*. c #726D6C",
"=. c #7A6D6C",
"-. c #7D6366",
";. c #74716D",
":. c #7A7868",
">. c #656670",
",. c #6C6C74",
"<. c #6A6670",
"1. c #746A73",
"2. c #7C6C74",
"3. c #776D76",
"4. c #767473",
"5. c #7A7375",
"6. c #7B7B74",
"7. c #75737B",
"8. c #7A757C",
"9. c #7C797B",
"0. c #8F0D0D",
"q. c #811317",
"w. c #8B1E22",
"e. c #872528",
"r. c #8A3538",
"t. c #98383B",
"y. c #9B2C31",
"u. c #AF3335",
"i. c #B23B3C",
"p. c #823F42",
"a. c #A93E40",
"s. c #984549",
"d. c #9A4D51",
"f. c #845B52",
"g. c #835751",
"h. c #8F4E4F",
"j. c #A04F53",
"k. c #A75659",
"l. c #B25B5D",
"z. c #846659",
"x. c #875968",
"c. c #B15E60",
"v. c #AE5F62",
"b. c #846A6A",
"n. c #857965",
"m. c #846B72",
"M. c #8A6C74",
"N. c #8E6975",
"B. c #976C79",
"V. c #827B7C",
"C. c #877678",
"Z. c #92747D",
"A. c #947A7D",
"S. c #98727D",
"D. c #B76468",
"F. c #AD666B",
"G. c #C45F60",
"H. c #C46769",
"J. c #C6777A",
"K. c #858168",
"L. c #878477",
"P. c #938D74",
"I. c #C0BF66",
"U. c #757581",
"Y. c #777984",
"T. c #7D7B84",
"R. c #7D7D89",
"E. c #7C7783",
"W. c #857C82",
"Q. c #897B80",
"!. c #817F8A",
"~. c #937C82",
"^. c #9A7D84",
"/. c #9B7782",
"(. c #A47E89",
"). c #A07D87",
"_. c #7F808D",
"`. c #838283",
"'. c #898283",
"]. c #83828C",
"[. c #8C8B8C",
"{. c #8B8788",
"}. c #9C858B",
"|. c #96878B",
" X c #96968B",
".X c #9E9E8B",
"XX c #868693",
"oX c #898A96",
"OX c #8C8C9A",
"+X c #959594",
"@X c #9B9B9C",
"#X c #9C9597",
"$X c #A5818A",
"%X c #AA8C94",
"&X c #A28A90",
"*X c #B28A95",
"=X c #A69498",
"-X c #A99499",
";X c #A29497",
":X c #AB9894",
">X c #A7A79F",
",X c #A5A5A4",
"<X c #ABABAC",
"1X c #ACA9A5",
"2X c #BEA5AB",
"3X c #B3A5A8",
"4X c #B1B1AC",
"5X c #BBAEB0",
"6X c #B2B2B2",
"7X c #BFB0B3",
"8X c #BCBCBC",
"9X c #B7B7B8",
"0X c #C5858B",
"qX c #C5A7AB",
"wX c #C8AAB2",
"eX c #C5AAB1",
"rX c #C5B9BB",
"tX c #C9B4B9",
"yX c #C1C1BF",
"uX c #CCC0A7",
"iX c #CFBCC0",
"pX c #C7C7C7",
"aX c #D4C3C6",
"sX c #DDD0D2",
"dX c #E0D2D4",
/* pixels */
"pXpXpXpXpXpXpXpXpXpXpXpXpXpXpXpXpXpXpXpXpXpXpXpXpXpXpXpXpXpXpXpXpXpXpXpXpXpXpXpXpXpXpXpXpXpXpXpXpXpXpXpXpXpXpXpXpXpXpXpXpXpXpXpX",
"pXpXpXpXpXpXpXpXpXpXpXpXpXpXpXpXpXpXpXpXpXpXpXpXpXpXpXpXpXpXpXpXpXpXpXpXpXpXpXpXpXpXpXpXpXpXpXpXpXpXpXpXpXpXpXpXpXpXpXpXpXpXpXpX",
"pXpXpXpXpXpXpXpXpXpXpXpXpXpXpXpXpXpXpXpXpXpXpXpXpXpXpXpXpXpXpXpXpXpXpXpXpXpXpXpXpXpXpXpXpXpXpXpXpXpXpXpXpXpXpXpXpXpXpXpXpXpXpXpX",
"pXpXpXpXpXpXpXpXpXpXpXpXpXpXpXpXpXpXpXpXpXpXpXpXpXpXpXpXpXpXpXpXpXpXpXpXpXpXpXpXpXpXpXpXpXpXpXpXpXpXpXpXpXpXpXpXpXpXpXpXpXpXpXpX",
"pXpXpXpXpXpXpXpXpXpXpXpXpXpXpXpXpXpXpXpXpXpXpXpXpXpXpXpXpXpXpXpXpXpXpXpXpXpXpXpXpXpXpXpXpXpXpXpXpXpXpXpXpXpXpXpXpXpXpXpXpXpXpXpX",
"pXpXpXpXpXpXpXpXpXpXpXpXpXpXpXpXpXpXpXpXpXpXpXpXpXpXpXpXpXpXpXpXpXpXpXpXpXpXpXpXpXpXpXpXpXpXpXpXpXpXpXpXpXpXpXpXpXpXpXpXpXpXpXpX",
"pXpXpXpXpXpXpXpXpXpXpXpXpXpXpXpXpXpXpXpXpXpXpXpXpXpXpXpXpXpXpXpXpXpXpXpXpXpXpXpXpXpXpXpXpXpXpXpXpXpXpXpXpXpXpXpXpXpXpXpXpXpXpXpX",
"pXpXpXpXpXpXpXpXpXpXpXpXpXpXpXpXpXpXpXpXpXpXpXpXpXpXpXpXpXpXpXpXpXpXpXpXpXpXpXpXpXpXpXpXpXpXpXpXpXpXpXpXpXpXpXpXpXpXpXpXpXpXpXpX",
"pXpXpXpXpXpXpXpXpXpXpXpXpXpXpXpXpXpXpXpXpXpXpXpXpXpXpXpXpXpXpXpXpXpXpXpXpXpXpXpXpXpXpXpXpXpXpXpXpXpXpXpXpXpXpXpXpXpXpXpXpXpXpXpX",
"pXpXpXpXpXpXpXpXpXpXpXpXpXpXpXpXpXpXpXpXpXpXpXpXpXpXpXpXpXpXpX9XyXpXpXpXpXpXpXpXpXpXpXpXpXpXpXpXpXpXpXpXpXpXpXpXpXpXpXpXpXpXpXpX",
"pXpXpXpXpXpXpXpXpXpXpXpXpXpXpXpXpXpXpXpXpXpXpXpXpXpXpXpXpXpXpX X>XpXpXpXpXpXpXpXpXpXpXpXpXpXpXpXpXpXpXpXpXpXpXpXpXpXpXpXpXpXpXpX",
"pXpXpXpXpXpXpXpXpXpXpXpXpXpXpXpXpXpXpXpXpXpXpXpXpXpXpXpXpXpX1Xf :.pXpXpXpXpXpXpXpXpXpXpXpXpXpXpXpXpXpXpXpXpXpXpXpXpXpXpXpXpXpXpX",
"pXpXpXpXpXpXpXpXpXpXpXpXpXpXpXpXpXpXpXpXpXpXpXpXpXpXpXpXpX4X:.f Q 6.yXpXpXpXpXpXpXpXpXpXpXpXpXpXpXpXpXpXpXpXpXpXpXpXpXpXpXpXpXpX",
"pXpXpXpXpXpXpXpXpXpXpXpXpXpXpXpXpXpXpXpXpXpXpXpXpXpXpXpX1X:._.Q +.! K.yXpXpXpXpXpXpXpXpXpXpXpXpXpXpXpXpXpXpXpXpXpXpXpXpXpXpXpXpX",
"pXpXpXpXpXpXpXpXpXpXpXpXpXpXpXpXpXpXpXpXpXpXpXpXpXpXpX>X:._.XXz +.} Q 6.8XpXpXpXpXpXpXpXpXpXpXpXpXpXpXpXpXpXpXpXpXpXpXpXpXpXpXpX",
"pXpXpXpXpXpXpXpXpXpXpXpXpXpXpXpXpXpXpXpXpXpXpXpXpX4XK.:._.XXXXz +.} } _ .. X8XpXpXpXpXpXpXpXpXpXpXpXpXpXpXpXpXpXpXpXpXpXpXpXpXpX",
"pXpXpXpXpXpXpXpXpXpXpXpXpXpXpXpXpXpXpXpXpXpXpXpX.X^ O.OXOXoXXX! O.} } >.} f :.<XpXpXpXpXpXpXpXpXpXpXpXpXpXpXpXpXpXpXpXpXpXpXpXpX",
"pXpXpXpXpXpXpXpXpXpXpXpXpXpXpXpXpXpXpXpXpX,X.XQ 8.!.oXOXoXOXOXd +.>.>.X.>.o.( b ~  X8XpXpXpXpXpXpXpXpXpXpXpXpXpXpXpXpXpXpXpXpXpX",
"pXpXpXpXpXpXpXpXpXpXpXpXpXpXpXpXpXpX,XP.~ ^ ;.OXXXOXOXXXOXOXoXb ..>.>.>.X.>.X.X.} b u ^  X8XpXpXpXpXpXpXpXpXpXpXpXpXpXpXpXpXpXpX",
"pXpXpXpXpXpXpXpXpXpXpXpXpXpXpXpX9XL.^ 7._.oXOXXXOXOXoXOXOXXXOXb ..} X.>.X.X.>.X.>.>.) ) d W @XpXpXpXpXpXpXpXpXpXpXpXpXpXpXpXpXpX",
"pXpXpXpXpXpXpXpXpXpXpXpXpXpXpXpXpXpXyX+X,.oXXXOXOXXXOXOXXXOXoXf ..>.>.>.>.>.>.>.} ,._ +.4XpXpXpXpXpXpXpXpXpXpXpXpXpXpXpXpXpXpXpX",
"pXpXpXpXpXpXpXpXpXpXpXpXpXpXpXpXpXpXpXuX8 # c XXXXOXOXoXOXoXOXz ..} >.} } >.X.>._ X O P.pXpXpXpXpXpXpXpXpXpXpXpXpXpXpXpXpXpXpXpX",
"pXpXpXpXpXpXpXpXpXpXpXpXpXpXpXpXpXpXpXqXk.t.% + c XXXXOXOXoXY.! ! } >.>.} >.j * O & r.P.pXpXpXpXpXpXpXpXpXpXpXpXpXpXpXpXpXpXpXpX",
"pXpXpXpXpXpXpXpXpXpXpXpXpXpXpXpXpXpXpX2XJ.j.i.u.$ + p XXoXY.R.! ! } } >.j @   e.e.< c.D.pXpXpXpXpXpXpXpXpXpXpXpXpXpXpXpXpXpXpXpX",
"pXpXpXpXpXpXpXpXpXpXpXpXpXpXpXpXpXpXpXpXp.s.J.H.k.u.q.O q 7.R.! ! } a . O , 2 k.l.v.$ #XpXpXpXpXpXpXpXpXpXpXpXpXpXpXpXpXpXpXpXpX",
"pXpXpXpXpXpXpXpXpXpXpXpXpXpXpXpXpXpX<X{.T.r % t.0XG.c.t.0.@ q u y X O 3 r.s.D.s.$ . s >.[.pXpXpXpXpXpXpXpXpXpXpXpXpXpXpXpXpXpXpX",
"pXpXpXpXpXpXpXpXpXpXpXpXpXpXpXpX@X,.Y.oXoXOX].[ & y.D.H.i.s.0.+ O 3 t.t.v.s.@ > g X.>.X.>.x 8.8XpXpXpXpXpXpXpXpXpXpXpXpXpXpXpXpX",
"pXpXpXpXpXpXpXpXpXpXpXpXpXpXpXpX9X@X7.XXOXoXOXoX3.< e.j.J.k.i.w., 8 l.k.< # : ( >.X.>.>.` o.<XyXpXpXpXpXpXpXpXpXpXpXpXpXpXpXpXpX",
"pXpXpXpXpXpXpXpXpXpXpXpXpXpXpXpXpXpX2.V.T.Y.6.;.>.XX3.2 r.d.D.v.d.d.< > 0 v ( ( } >.( ` ! @XpXpXpXpXpXpXpXpXpXpXpXpXpXpXpXpXpXpX",
"pXpXpXpXpXpXpXpXpXpXpXpXpXpXpXpXpXpX%.A $.@.n..X/ R.OXXX1.- w.a.3 * : ( X.x f f f  .q Z f @XpXpXpXpXpXpXpXpXpXpXpXpXpXpXpXpXpXpX",
"pXpXpXpXpXpXpXpXpXpXpXpXpXpXpXpXpXyX*.~ E ^.$.9.4.Q XXoXOXoX1.> q ( o.>.X.W A.R @.M.p 8 Z +XpXpXpXpXpXpXpXpXpXpXpXpXpXpXpXpXpXpX",
"pXpXpXpXpXpXpXpXpXpXpXpXpXpXpXpX<XoX].`.~ K.I.;.XX,.>.].oXoXR.v ! X.X.X.u s $.R -X-XJ O.X.} @XyXpXpXpXpXpXpXpXpXpXpXpXpXpXpXpXpX",
"pXpXpXpXpXpXpXpXpXpXpXpXpXpX+X8.T.XX9.:.L./ K.~ R.XX!.U.,.Y.T.Q ! ( ( ' &.r : P m.%.c ) >.>.) ( 9.4XpXpXpXpXpXpXpXpXpXpXpXpXpXpX",
"pXpXpXpXpXpXpXpXpXpXpXpXpXpXpX<X7.].].T.-Xz.z.5 R.XXoX!.%.4.1.b z ` B A.=XH T G X.) >.>.X.) X.T.9XpXpXpXpXpXpXpXpXpXpXpXpXpXpXpX",
"pXpXpXpXpXpXpXpXpXpXpXpXpXpXpXpXm.~.W.T.].=.z. .;.XXXXXXW.4 b.T a M V }.m.c o.X.X.>.o.) ( %.b.#XpXpXpXpXpXpXpXpXpXpXpXpXpXpXpXpX",
"pXpXpXpXpXpXpXpXpXpXpXpXpXpXpXpX|.2X(.] 9._.R.R.~ _.XXXX1.~ E Y = M N 1.X.) >.>.X.) X. .N }.=X#XpXpXpXpXpXpXpXpXpXpXpXpXpXpXpXpX",
"pXpXpXpXpXpXpXpXpXpXpXpXpXpXpX9XV.^.*XH z.C.9.3._.L.oX_.XX].L.@.v 1.( ) >.>.X.) (  .Z M [ A.m.T.pXpXpXpXpXpXpXpXpXpXpXpXpXpXpXpX",
"pXpXpXpXpXpXpXpXpXpXpXpXpXpX<XoX_.{./.N f.f.n.H 9.].OXoXoXOXR.1.( ) >.>.>.X.( ' q i m 9 H 5.) >.[.8XpXpXpXpXpXpXpXpXpXpXpXpXpXpX",
"pXpXpXpXpXpXpXpXpXpXpXpXoXX.R.!.XXOXR.8.V./ f.x.B.' T.XXOXOXY.! ! X.>.X.( o.r m.p 7 $.3.g o.>.X.( x >.4XpXpXpXpXpXpXpXpXpXpXpXpX",
"pXpXpXpXpXpXpXpXpXpXpXpXpX,X` R.OXOXoXOX!.{.V.x.*X7 b.6.8.Y.R.! ! ) v  .! 7 H Z.F 4.( >.>.X.>.>.x <.8XpXpXpXpXpXpXpXpXpXpXpXpXpX",
"pXpXpXpXpXpXpXpXpXpXpXpXpXpXI Z.3.R.oXoXoXOXXX8.M.B f.g.C M.,.d b | V : m 9 n 1.x >.>.} >.>.g %.-.'.pXpXpXpXpXpXpXpXpXpXpXpXpXpX",
"pXpXpXpXpXpXpXpXpXpXpXpXpXpXC.tXN.=.W.R.OXoXoXoXXX!.V.:.m qX/.{ R Z.=.4 =.4.( X.>.} >.>.x  .B ^.eXoXpXpXpXpXpXpXpXpXpXpXpXpXpXpX",
"pXpXpXpXpXpXpXpXpXpXpXpXpX6X' ).x.C z.R T.R.OXoXOXOXXX].' (.wX3X;X~.R %.( >.o.X.>.>.( Y i 7 1 M.m.4.yXpXpXpXpXpXpXpXpXpXpXpXpXpX",
"pXpXpXpXpXpXpXpXpXpXpX,X!.E.XX!.&.$.E m A &.].R.OXXXOXOX!.!.^.Z.] 5.( X.>.X.>.X._ 8.; : = M B 7._ } } [.8XpXpXpXpXpXpXpXpXpXpXpX",
"pXpXpXpXpXpXpXpXpXpX4X[.Y.oXOXoXXX].{.H E ^.sXrX2.R.OXXXOXoXXXb v X.>.X.X.} c V.5XrX1 ; l 5.( X.>.X.} >.@XpXpXpXpXpXpXpXpXpXpXpX",
"pXpXpXpXpXpXpXpXpXpXpXpX8Xo.7.XXoXoXXX9.A.}.dXdX(.=.' R.OXXXU.! ! X.X.X.c v P 3XrXrXp 1.) ` >.>.} } 6.pXpXpXpXpXpXpXpXpXpXpXpXpX",
"pXpXpXpXpXpXpXpXpXpXpXpXpXb.B.] Y.XXOXoXoX_.;XaX(.f.w C.W.<.R.! ! v _ | B 1 n 3X1X7.( X.>.>.( o.> m.'.pXpXpXpXpXpXpXpXpXpXpXpXpX",
"pXpXpXpXpXpXpXpXpXpXpXpXpX,XaXK b.V.7.:.#.O.oX_.] P.r f.f.R 5.a v ] : 7 1 P T ` ( ) 6 Q k X.] i F rX+XpXpXpXpXpXpXpXpXpXpXpXpXpX",
"pXpXpXpXpXpXpXpXpXpXpXpXpX~.eXH g.z.-.$.n.^ `.oX].].I $.D N./.&.R M.; Z G ` ) X.} Q S #.s P 9 m F -X{.pXpXpXpXpXpXpXpXpXpXpXpXpX",
"pXpXpXpXpXpXpXpXpXpXpXpX[.%.Z.n A g.C B.S.A.P.R.OXXXXX].'.x.qX-X|./.h 1.o.` X.X.v n.R M.e 8 8 4 e 2.v 9XpXpXpXpXpXpXpXpXpXpXpXpX",
"pXpXpXpXpXpXpXpXpXpXpXpXO.O. .Y 2.T C qX*XB.P.m.U.oXoXoXXX7.|.M.%.#.( ` >.>.` c  .m.R 5XJ 4 Z  .= v y ;XpXpXpXpXpXpXpXpXpXpXpXpX",
"pXpXpXpXpXpXpXpXpXpXpX4X+.O.!  .#.*.] ).*XqXtX$X{ m.7.XXoXoX].| ` X.X.>.) h @.H }.5XM.&XN #.U k v d v O.pXpXpXpXpXpXpXpXpXpXpXpX",
"pXpXpXpXpXpXpXpXpXpXyX4.#.U O.*.!  .! @.b./.wXwX%X(.] C.R.XXY.! ! X.) `  .V ;XM.7X&XF %.a k l l v b d k @XpXpXpXpXpXpXpXpXpXpXpX",
"pXpXpXpXpXpXpXpXpXpX9X| v *.*.! ..*.U  .| @.~.B.%XwX7 E M.' ,.Q z x Y B 7 K 3XK m.#.a l l k z l d v k d `.pXpXpXpXpXpXpXpXpXpXpX",
"pXpXpXpXpXpXpXpXpXpXpXpX@X+.z  .*.! O.*.U  .O.Y m.B.; g.g.C Z.R R V : 8 7 r m.s U k b l z l k z b d 9.4XpXpXpXpXpXpXpXpXpXpXpXpX",
"pXpXpXpXpXpXpXpXpXpXpXpXpXyX,X4.U ! *.! O.*.! | o.Y ] Y A t tX&X|.m.: 9 Y s v k l k z l k z d x `.6XpXpXpXpXpXpXpXpXpXpXpXpXpXpX",
"pXpXpXpXpXpXpXpXpXpXpXpXpXpXpXpX,X4.v  .;.!  .;.U | O.O.5.K eXeX;X-.L  .v l k z z l k b k k [.8XpXpXpXpXpXpXpXpXpXpXpXpXpXpXpXpX",
"pXpXpXpXpXpXpXpXpXpXpXpXpXpXpXpXpXpX,X4.z  .4.U  .;.!  .O.h A.M.] L l l k b l d k z d k [.8XpXpXpXpXpXpXpXpXpXpXpXpXpXpXpXpXpXpX",
"pXpXpXpXpXpXpXpXpXpXpXpXpXpXpXpXpXpXpXpX,Xv l | ;.! | ;.U  .;.l k b k z z d b v z o _.yXpXpXpXpXpXpXpXpXpXpXpXpXpXpXpXpXpXpXpXpX",
"pXpXpXpXpXpXpXpXpXpXpXpXpXpXpXpXpXpXpXpXpXpX+X| U  .;. .! ;.| U d k b l l z l y +.4XpXpXpXpXpXpXpXpXpXpXpXpXpXpXpXpXpXpXpXpXpXpX",
"pXpXpXpXpXpXpXpXpXpXpXpXpXpXpXpXpXpXpXpXpXpXpXpX@X| v ! ;.| ! v d l k k l y 4.8XpXpXpXpXpXpXpXpXpXpXpXpXpXpXpXpXpXpXpXpXpXpXpXpX",
"pXpXpXpXpXpXpXpXpXpXpXpXpXpXpXpXpXpXpXpXpXpXpXpXpXpX@X .v | ;.z k b b y 9.8XpXpXpXpXpXpXpXpXpXpXpXpXpXpXpXpXpXpXpXpXpXpXpXpXpXpX",
"pXpXpXpXpXpXpXpXpXpXpXpXpXpXpXpXpXpXpXpXpXpXpXpXpXpXpXpX@X .v U d y 9.8XpXpXpXpXpXpXpXpXpXpXpXpXpXpXpXpXpXpXpXpXpXpXpXpXpXpXpXpX",
"pXpXpXpXpXpXpXpXpXpXpXpXpXpXpXpXpXpXpXpXpXpXpXpXpXpXpXpXpXpX@X| 4.8XpXpXpXpXpXpXpXpXpXpXpXpXpXpXpXpXpXpXpXpXpXpXpXpXpXpXpXpXpXpX"
};
