/* XPM */
static char *result[] = {
/* columns rows colors chars-per-pixel */
"78 64 186 2 ",
"   c gray78",
".  c #81918F",
"X  c #A4ACAB",
"o  c #0C3730",
"O  c #6A7F7C",
"+  c #B6BAB9",
"@  c #67827E",
"#  c #748A86",
"$  c #939F9D",
"%  c #98A3A1",
"&  c white",
"*  c #869B98",
"=  c #3B5B56",
"-  c #C1C3C2",
";  c #B0B5B5",
":  c #8F9C9A",
">  c #2B504A",
",  c #F4FEFC",
"<  c #F7FEFD",
"1  c #FAFFFE",
"2  c #85A5A0",
"3  c #114C42",
"4  c #38665F",
"5  c #496964",
"6  c #A2F6E7",
"7  c #BAF8ED",
"8  c #D1FAF3",
"9  c #81EBD8",
"0  c #30DBBD",
"q  c #27B29A",
"w  c #BCBEBE",
"e  c #5E7C77",
"r  c #ABF7E9",
"t  c #AEF8EA",
"y  c #B7F8ED",
"u  c #C1F9EF",
"i  c #7AEBD7",
"p  c #34DEC0",
"a  c #2AB49C",
"s  c #E8FDF9",
"d  c #A5F6E8",
"f  c #4AEDD1",
"g  c #3BC0A9",
"h  c #F3FEFC",
"j  c #CEFAF2",
"k  c #A8F7E9",
"l  c #A6F6E8",
"z  c #E6FDF9",
"x  c #FCFFFE",
"c  c #A7F6E9",
"v  c #53EED3",
"b  c #4EEED2",
"n  c #3BC2AB",
"m  c #0E4139",
"M  c #3A605A",
"N  c #EAFDFA",
"B  c #EEFEFB",
"V  c #D2FAF3",
"C  c #C8F9F1",
"Z  c #D5FBF4",
"A  c #DAFBF5",
"S  c #C9F9F1",
"D  c #B8F8ED",
"F  c #81F2DF",
"G  c #42E1C5",
"H  c #29BCA3",
"J  c #2BA28D",
"K  c #2F524D",
"L  c #DDFBF6",
"P  c #8EF4E2",
"I  c #44E9CC",
"U  c #6B817D",
"Y  c #1B443D",
"T  c #53726D",
"R  c #F9FFFE",
"E  c #E5FDF8",
"W  c #F8FFFD",
"Q  c #D8FBF5",
"!  c #CDFAF2",
"~  c #8AF1DF",
"^  c #48E8CC",
"/  c #42E5C9",
"(  c #32DCBE",
")  c #28B39B",
"_  c #7B8D8A",
"`  c #809692",
"'  c #D2DAD8",
"]  c #CAE1DD",
"[  c #B4F8EC",
"{  c #C2F9EF",
"}  c #A2F6E8",
"|  c #9BF6E6",
" . c #99F5E5",
".. c #61CDBB",
"X. c #28A690",
"o. c #2FB79F",
"O. c #45EACD",
"+. c #37BDA6",
"@. c #B9F8ED",
"#. c #8CF4E2",
"$. c #56C5B2",
"%. c #209581",
"&. c #2BAB95",
"*. c #B2F8EB",
"=. c #E3FCF8",
"-. c #40D9BF",
";. c #239E89",
":. c #536D69",
">. c #AEF7EA",
",. c #EFFDFB",
"<. c #C0F9EF",
"1. c #AAF2E5",
"2. c #6ADECA",
"3. c #239985",
"4. c #2DA692",
"5. c #2BA490",
"6. c #239F8A",
"7. c #A8EFE3",
"8. c #2CCDB1",
"9. c #1F8F7C",
"0. c #1B7B6B",
"q. c #E7FDF9",
"w. c #9FF5E7",
"e. c #85EEDC",
"r. c #38D9BD",
"t. c #64D1BE",
"y. c #44BDA8",
"u. c #25AA93",
"i. c #24A690",
"p. c #229A86",
"a. c #219581",
"s. c #1D8574",
"d. c #D2FBF4",
"f. c #26B199",
"g. c #29BFA5",
"h. c #8D9A98",
"j. c #526D69",
"k. c #7B918D",
"l. c #A4B4B2",
"z. c #8EC2BA",
"x. c #46E2C8",
"c. c #39C3AB",
"v. c #25AC95",
"b. c #26AF97",
"n. c #27B69E",
"m. c #27B69D",
"M. c #197263",
"N. c #1C6558",
"B. c #3ED1B8",
"V. c #24A48E",
"C. c #1F907D",
"Z. c #24A891",
"A. c #1B6458",
"S. c #47EBCF",
"D. c #3CCFB6",
"F. c #1F8E7B",
"G. c #2BC6AB",
"H. c #23A28C",
"J. c #156053",
"K. c #2BC3A9",
"L. c #1C8271",
"P. c #1B7E6D",
"I. c #758885",
"U. c #244943",
"Y. c #26685D",
"T. c #2CC7AC",
"R. c #28B59C",
"E. c #1C7F6E",
"W. c #1C8170",
"Q. c #1E8A77",
"!. c #1F796A",
"~. c #114F44",
"^. c #9BA5A4",
"/. c #18403A",
"(. c #1A544A",
"). c #2AC4A9",
"_. c #24AA93",
"`. c #1D7B6B",
"'. c #44625D",
"]. c #BEC0C0",
"[. c #7F9390",
"{. c #10493F",
"}. c #125348",
"|. c #114E44",
" X c #35625A",
".X c #ADB3B2",
/* pixels */
"                                                                                                                                                            ",
"                                                                                                                                                            ",
"                                                                                                                                                            ",
"                                                                                                                                                            ",
"                                                                                                                                                            ",
"                                                              . . . . . . . . . . . . . . . . X                                                             ",
"                                                              o o o o o o o o o o o o o o o o O                                                             ",
"                                                              o o o o o o o o o o o o o o o o O                                                             ",
"                                                              o o o o o o o o o o o o o o o o O                                                             ",
"                                                    + . . . . @ @ @ @ @ @ @ @ @ @ @ @ @ @ @ @ # . . . $                                                     ",
"                                                    % o o o o & & & & & & & & & & & & & & & & * o o o =                                                     ",
"                                                    % o o o o & & & & & & & & & & & & & & & & * o o o =                                                     ",
"                                                    % o o o o & & & & & & & & & & & & & & & & * o o o =                                                     ",
"                                            - ; ; ; : > > > > , , , , , , , , , , , , < 1 1 1 2 3 3 3 4 ; ; ; +                                             ",
"                                            % o o o 5 & & & & 6 6 6 6 6 6 6 6 6 6 6 6 7 8 8 8 9 0 0 0 q o o o =                                             ",
"                                            % o o o 5 & & & & 6 6 6 6 6 6 6 6 6 6 6 6 7 8 8 8 9 0 0 0 q o o o =                                             ",
"                                            % o o o 5 & & & & 6 6 6 6 6 6 6 6 6 6 6 6 7 8 8 8 9 0 0 0 q o o o =                                             ",
"                                    w ; ; ; : > > > e 1 1 1 1 6 6 6 6 6 6 6 6 r t t t y u u u i p p p a o o o =                                             ",
"                                    O o o o 5 & & & , 8 8 8 8 6 6 6 6 6 6 6 6 s & & & d f f f f f f f g o o o =                                             ",
"                                    O o o o 5 & & & , 8 8 8 8 6 6 6 6 6 6 6 6 s & & & d f f f f f f f g o o o =                                             ",
"                                    O o o o 5 & & & , 8 8 8 8 6 6 6 6 6 6 6 6 s & & & d f f f f f f f g o o o =                                             ",
"                                    O o o o 5 & & & h j j j j k k k k l d d d z x x x c v v v b f f f n m m m M w w w w                                     ",
"                                    O o o o 5 & & & N r r r r B B B B V C C C Z A A A S D D D F f f f G H H H J K K K K                                     ",
"                                    O o o o 5 & & & s 6 6 6 6 & & & & L 8 8 8 8 8 8 8 8 8 8 8 P f f f I 0 0 0 q o o o o                                     ",
"                                    O o o o 5 & & & s 6 6 6 6 & & & & L 8 8 8 8 8 8 8 8 8 8 8 P f f f I 0 0 0 q o o o o                                     ",
"                            - w w w U Y Y Y T R R R E k k k k W W W W Q ! ! ! ! ! ! ! ! ! ! ! ~ ^ ^ ^ / ( ( ( ) o o o o                                     ",
"                            _ K K K ` ' ' ' ] [ [ [ { B B B B } } } } |  . . . . . . . . . . ...X.X.X.o.O.O.O.+.o o o o                                     ",
"                            O o o o * & & & s 6 6 6 @.& & & & #.#.#.#.#.#.#.#.#.#.#.#.#.#.#.#.$.%.%.%.&.f f f g o o o o                                     ",
"                            O o o o * & & & s 6 6 6 @.& & & & #.#.#.#.#.#.#.#.#.#.#.#.#.#.#.#.$.%.%.%.&.f f f g o o o o                                     ",
"                            O o o o * & & & s 6 6 6 @.& & & & #.#.#.#.#.#.#.#.#.#.#.#.#.#.#.#.$.%.%.%.&.f f f g o o o o                                     ",
"                            O o o o * & & & s 6 6 6 *.=.=.=.=.#.#.#.#.#.#.#.#.#.#.#.#.#.#.#.#.$.%.%.%.&.f f f -.;.;.;.;.:.:.:.:.                            ",
"                            O o o o * & & & s 6 6 6 >.8 8 8 8 #.#.#.#.#.#.#.#.#.#.#.#.#.#.#.#.$.%.%.%.&.f f f I 0 0 0 0 o o o o                             ",
"                            O o o o * & & & s 6 6 6 >.8 8 8 8 #.#.#.#.#.#.#.#.#.#.#.#.#.#.#.#.$.%.%.%.&.f f f I 0 0 0 0 o o o o                             ",
"                            O o o o * & & & s 6 6 6 >.8 8 8 8 #.#.#.#.#.#.#.#.#.#.#.#.#.#.#.#.$.%.%.%.&.f f f I 0 0 0 0 o o o o                             ",
"                            O o o o * & & & ,.<.<.<.1.2.2.2.2.#.#.#.#.#.#.#.#.#.#.#.#.#.#.#.#.$.%.%.%.3.4.4.4.5.6.6.6.6.o o o o                             ",
"                            O o o o * & & & , 8 8 8 7.8.8.8.8.#.#.#.#.#.#.#.#.#.#.#.#.#.#.#.#.$.%.%.%.9.0.0.0.0.0.0.0.0.o o o o                             ",
"                            O o o o * & & & , 8 8 8 7.8.8.8.8.#.#.#.#.#.#.#.#.#.#.#.#.#.#.#.#.$.%.%.%.9.0.0.0.0.0.0.0.0.o o o o                             ",
"                            O o o o * & & & , 8 8 8 7.8.8.8.8.#.#.#.#.#.#.#.#.#.#.#.#.#.#.#.#.$.%.%.%.9.0.0.0.0.0.0.0.0.o o o o                             ",
"                            O o o o * & & & q.w.w.w.e.r.r.r.r.t.t.t.t.t.t.t.t.t.t.t.t.t.t.t.t.y.u.u.u.i.p.p.p.a.s.s.s.s.o o o o                             ",
"                            O o o o * & & & d.f f f f f f f f %.%.%.%.%.%.%.%.%.%.%.%.%.%.%.%.f.8.8.8.8.8.8.8.g.%.%.%.%.o o o o                             ",
"                            O o o o * & & & d.f f f f f f f f %.%.%.%.%.%.%.%.%.%.%.%.%.%.%.%.f.8.8.8.8.8.8.8.g.%.%.%.%.o o o o                             ",
"                            O o o o * & & & d.f f f f f f f f %.%.%.%.%.%.%.%.%.%.%.%.%.%.%.%.f.8.8.8.8.8.8.8.g.%.%.%.%.o o o o                             ",
"                            h.j.j.j.k.l.l.l.z.f f f x.c.c.c.c.u.u.u.u.u.u.u.u.u.u.u.u.u.u.u.u.v.b.b.b.n.8.8.8.m.M.M.M.M.j.j.j.j.                            ",
"                                    O o o o N.f f f B.0.0.0.0.8.8.8.8.8.8.8.8.8.8.8.8.8.8.8.8.V.0.0.0.C.8.8.8.Z.o o o o                                     ",
"                                    O o o o N.f f f B.0.0.0.0.8.8.8.8.8.8.8.8.8.8.8.8.8.8.8.8.V.0.0.0.C.8.8.8.Z.o o o o                                     ",
"                                    O o o o N.f f f B.0.0.0.0.8.8.8.8.8.8.8.8.8.8.8.8.8.8.8.8.V.0.0.0.C.8.8.8.Z.o o o o                                     ",
"                                    O o o o A.S.S.S.D.0.0.0.0.8.8.8.8.8.8.8.8.8.8.8.8.8.8.8.8.V.0.0.0.F.G.G.G.H.o o o o                                     ",
"                                    O o o o J.0 0 0 K.0.0.0.0.8.8.8.8.8.8.8.8.8.8.8.8.8.8.8.8.V.0.0.0.L.%.%.%.P.o o o o                                     ",
"                                    O o o o J.0 0 0 K.0.0.0.0.8.8.8.8.8.8.8.8.8.8.8.8.8.8.8.8.V.0.0.0.L.%.%.%.P.o o o o                                     ",
"                                    O o o o J.0 0 0 K.0.0.0.0.8.8.8.8.8.8.8.8.8.8.8.8.8.8.8.8.V.0.0.0.L.%.%.%.P.o o o o                                     ",
"                                    I.U.U.U.Y.T.T.T.R.E.E.E.E.8.8.8.8.8.8.8.8.8.8.8.8.8.8.8.8.i.E.E.E.W.Q.Q.Q.!.U.U.U.U.                                    ",
"                                            % o o o ~.%.%.%.%.8.8.8.8.8.8.8.8.8.8.8.8.8.8.8.8.f.%.%.%.P.o o o =                                             ",
"                                            % o o o ~.%.%.%.%.8.8.8.8.8.8.8.8.8.8.8.8.8.8.8.8.f.%.%.%.P.o o o =                                             ",
"                                            % o o o ~.%.%.%.%.8.8.8.8.8.8.8.8.8.8.8.8.8.8.8.8.f.%.%.%.P.o o o =                                             ",
"                                            ^./././.(.9.9.9.9.).).).).).).).).).).).).).).).)._.9.9.9.`./././.'.                                            ",
"                                            ].X X X [.{.{.{.{.}.}.}.}.}.}.}.}.}.}.}.}.}.}.}.}.|.{.{.{. XX X X .X                                            ",
"                                                    % o o o o o o o o o o o o o o o o o o o o o o o o =                                                     ",
"                                                    % o o o o o o o o o o o o o o o o o o o o o o o o =                                                     ",
"                                                    ^././././././././././././././././././././././././.'.                                                    ",
"                                                    ].X X X X X X X X X X X X X X X X X X X X X X X X .X                                                    ",
"                                                                                                                                                            ",
"                                                                                                                                                            ",
"                                                                                                                                                            ",
"                                                                                                                                                            "
};
