/* XPM */
static char *result[] = {
/* columns rows colors chars-per-pixel */
"64 64 164 2 ",
"   c #626262",
".  c #6B6867",
"X  c #6B6B6A",
"o  c #726C66",
"O  c #736E6D",
"+  c #73726F",
"@  c #7D746B",
"#  c #767572",
"$  c #7C7470",
"%  c #787876",
"&  c #77787B",
"*  c #7A7A7A",
"=  c #807775",
"-  c #847E7A",
";  c #92806F",
":  c #8E8177",
">  c #84837D",
",  c #88817D",
"<  c #998572",
"1  c #95867A",
"2  c #9D8B7C",
"3  c #A58E7C",
"4  c #828387",
"5  c #898780",
"6  c #88878C",
"7  c #8B8B8B",
"8  c #958683",
"9  c #9D8F83",
"0  c #938C8C",
"q  c #9E8D89",
"w  c #9E9283",
"e  c #98958C",
"r  c #8E8E94",
"t  c gray57",
"y  c #9C9594",
"u  c #96979C",
"i  c #A49283",
"p  c #AE9585",
"a  c #A2938B",
"s  c #A7988A",
"d  c #AA9A8B",
"f  c #AA9590",
"g  c #A29E95",
"h  c #AD9A93",
"j  c #A39C9B",
"k  c #A89F9B",
"l  c #B89D91",
"z  c #B89F9A",
"x  c #ABA196",
"c  c #A4A19A",
"v  c #ADA69C",
"b  c #AEA99E",
"n  c #B6A397",
"m  c #BDA092",
"M  c #B1A69C",
"N  c #BFA59D",
"B  c #BAAC9C",
"V  c #A39EA2",
"C  c #A2A1A3",
"Z  c #A9A7A2",
"A  c #ACA8A5",
"S  c #A5A5AD",
"D  c #ABA7AC",
"F  c #AEACAE",
"G  c #B2A6A6",
"H  c #B4ACA4",
"J  c #B8A9A0",
"K  c #B2A6A8",
"L  c #B3AFAC",
"P  c #BCB1A2",
"I  c #BDB7AA",
"U  c #BDB8AA",
"Y  c #A7A7B0",
"T  c #A6A9B3",
"R  c #ABACB4",
"E  c #A7ACBA",
"W  c #ADADB9",
"Q  c #B6AFB6",
"!  c #BBAEB1",
"~  c #B0AEB9",
"^  c #ACB0BC",
"/  c gray69",
"(  c #BDB4B6",
")  c #B3B3BC",
"_  c #B8B1B8",
"`  c #B6B8BE",
"'  c #BEBDBC",
"]  c #C2A497",
"[  c #C0A599",
"{  c #C3AA9B",
"}  c #C0B29E",
"|  c #C1AAA5",
" . c #CCADA6",
".. c #CEAFA8",
"X. c #C1B5A4",
"o. c #C3B5AA",
"O. c #CDB1AB",
"+. c #C2BCAE",
"@. c #CBBBAC",
"#. c #D4B4AC",
"$. c #D9B7AE",
"%. c #C3B4B7",
"&. c #CBB5B5",
"*. c #C5BFB0",
"=. c #CFBBB6",
"-. c #C4B7B9",
";. c #C1BEBB",
":. c #CCBBB9",
">. c #D4B7B3",
",. c #D6B9B4",
"<. c #DDBCB4",
"1. c #D0BFBC",
"2. c #D8BFB9",
"3. c #C5C1BD",
"4. c #CCC5BD",
"5. c #D4C5B7",
"6. c #D3C2BE",
"7. c #DAC4BA",
"8. c #D2CBBA",
"9. c #DCCDBD",
"0. c #E0C1B7",
"q. c #E1C6BA",
"w. c #E2CCBE",
"e. c #B7BAC0",
"r. c #BABCC2",
"t. c #C7C7C7",
"y. c #CBC5C4",
"u. c #CCCAC7",
"i. c #C5C8CE",
"p. c #CECECE",
"a. c #D8C6C2",
"s. c #D4CCC3",
"d. c #DECEC2",
"f. c #D1CFCA",
"g. c #DBD4C3",
"h. c #D7D2C8",
"j. c #DBD7CA",
"k. c #D4D4D4",
"l. c #D8DADE",
"z. c #E4CFC1",
"x. c #E2D5C5",
"c. c #E4D9C6",
"v. c #E9D3CB",
"b. c #E6DECA",
"n. c #E9DECE",
"m. c #E0DDD6",
"M. c #ECD9D5",
"N. c #E8E1CE",
"B. c #EAE4D3",
"V. c #E4E0DC",
"C. c #EAE5DB",
"Z. c #EEE8DA",
"A. c #F1E6DF",
"S. c #DADCE2",
"D. c #E4E4E3",
"F. c #EAE9E6",
"G. c #E9E9E9",
"H. c #F3EFE5",
"J. c #F1EEEC",
"K. c #F6F3EC",
"L. c #F4F3F3",
"P. c #FAF6F3",
"I. c #FBFAF6",
"U. c #FFFFFF",
/* pixels */
"t.t.t.t.t.t.t.t.t.t.t.t.t.t.t.t.t.t.t.t.t.t.t.t.t.t.t.t.t.t.t.t.t.t.t.t.t.t.t.t.t.t.t.t.t.t.t.t.t.t.t.t.t.t.t.t.t.t.t.t.t.t.t.t.",
"t.t.t.t.t.t.t.t.t.t.t.t.t.t.t.t.t.t.i.t.t.t.t.t.t.t.t.t.t.t.u.t.t.t.t.t.t.t.t.t.t.t.t.t.t.t.t.t.t.t.t.t.t.t.t.t.t.t.t.t.t.t.t.t.",
"t.t.t.t.t.t.t.t.t.t.t.t.t.t.t.t.t.t.t.t.t.t.t.t.t.t.t.t.t.t.t.t.t.t.t.t.t.t.t.t.t.t.t.t.t.t.t.t.t.t.t.t.t.t.t.t.t.t.t.t.t.t.t.t.",
"t.t.t.t.t.t.t.t.t.t.t.t.t.t.t.t.t.t.t.t.t.t.t.t.t.t.t.t.t.t.t.t.t.t.t.t.t.t.i.u.t.t.t.t.t.u.t.t.t.t.t.t.t.t.t.t.t.t.t.t.t.t.u.t.",
"t.t.t.t.t.t.t.t.t.t.t.t.t.t.t.t.t.t.t.t.t.t.t.t.t.u.t.t.t.t.t.t.t.t.t.t.t.t.t.t.t.t.t.t.t.t.t.t.t.t.t.t.t.t.i.t.t.t.t.t.t.t.t.t.",
"t.t.t.t.t.t.t.t.t.t.t.t.t.t.t.t.t.u.t.t.t.t.t.t.t.t.t.t.t.t.t.t.t.t.t.t.t.t.t.t.t.t.t.t.t.t.t.t.t.t.t.t.t.u.t.t.t.t.t.t.t.t.t.t.",
"t.t.t.t.t.t.t.t.t.t.t.t.t.t.t.t.t.t.t.t.t.t.t.t.t.t.t.t.t.t.t.t.t.t.t.t.t.t.t.t.t.t.t.t.t.t.t.t.t.t.t.t.t.t.t.t.t.t.t.t.t.t.t.t.",
"t.t.t.t.t.t.t.t.t.t.t.t.u.t.t.t.t.t.t.t.t.t.t.t.t.t.t.t.t.t.t.t.t.t.t.t.t.t.t.t.t.t.t.t.t.t.t.t.t.t.t.t.t.t.t.t.t.t.t.t.t.t.t.t.",
"t.t.t.t.t.t.t.t.t.t.i.t.t.t.t.t.t.t.y.y.u.u.u.u.u.u.u.u.u.u.u.u.u.t.t.y.y.y.t.t.t.t.t.t.t.t.t.t.t.t.t.t.t.t.t.t.t.t.t.t.t.t.t.t.",
"t.t.t.t.t.t.u.t.t.t.u.u.t.t.t.t.t.y.2.d.j.c.j.c.b.j.b.j.j.b.j.b.b.b.d.<.<.6.t.t.t.t.t.t.t.t.t.t.t.t.t.t.t.t.t.t.t.t.t.t.t.t.t.t.",
"t.t.t.t.i.t.t.t.t.t.t.t.t.t.t.t.y.a.M.Z.H.K.H.H.H.H.H.H.H.H.H.H.H.H.A.M.x.g.h.h.h.h.h.h.h.h.h.h.h.h.s.a.y.t.t.t.t.u.t.t.t.t.t.t.",
"t.t.t.t.t.t.t.t.t.t.t.t.t.t.t.y.a.v.P.K.D.D.L.I.G.L.U.U.L.G.L.L.G.I.U.U.Z.B.B.B.B.B.B.B.B.B.B.B.B.B.n.w.6.t.t.t.t.t.t.t.t.i.u.t.",
"t.t.t.t.t.t.t.t.t.t.t.t.t.t.y.7.M.P.U.' * * ' G.t ' U.U.' t G.r.t G.U.U.I.I.I.I.I.I.I.I.I.I.I.I.I.I.K.N.h.t.t.t.t.t.t.t.t.t.t.t.",
"t.t.t.t.t.t.t.t.t.t.t.t.t.t.y.<.b.H.H.4.e X / D.% / U.U./ * F.k.' L.k.L F l.L.r./ ' L.k.' L.U.U.U.V.5.w.a.t.t.t.t.t.t.t.t.t.t.t.",
"t.t.t.t.t.t.t.t.t.t.t.t.t.t.y.7.w.N.N.9.+.> ( V.* C G.L.U 7 V.H.G.L.F   + F h.7 X & p.R t G.U.U.J.+.i #.6.t.t.t.t.t.t.t.t.t.t.t.",
"t.u.t.t.t.t.t.t.t.t.t.t.t.t.u.x.g.N.N.b > +.j.8.# X 7 h.j.8.b.U 7 g.c + U c 7 k.C . # / G.I.U.G.N k ~ >.6.t.t.t.t.t.t.t.t.t.t.t.",
"t.t.t.t.t.t.t.t.t.t.t.t.t.y.a.c.b.b.b.5.v g.b.9.b g b g.b.b.b.*.b g.g X e > % j.b X e 8.H.H.h.Z 2 g W >.:.r.t.t.t.t.t.t.t.t.t.t.",
"t.t.t.t.t.t.t.t.t.t.t.t.u.1.0.c.b.b.b.b.b.b.N.N.b.b.b.b.b.b.b.N.b.b.b + # % > 8.b > 8.N.N.N.c o 1 j ~ &.( ^ t.t.t.t.t.t.t.t.t.t.",
"t.t.t.t.t.t.t.t.t.t.t.t.t.6.7.x.b.b.b.b.b.b.b.b.b.b.b.b.b.b.b.b.b.b.g.8.8.8.8.b.8.8.9.N.c.N.P 1 V T W W W W t.t.t.t.t.t.t.t.t.t.",
"t.t.t.t.t.t.t.t.t.t.t.t.t.a.z.c.b.b.b.b.b.N.b.b.b.b.b.b.b.b.b.b.b.b.b.b.b.b.b.b.N.N.N.N.9.v 2 2 S E E W ~ %.t.t.t.t.t.t.t.t.t.t.",
"u.t.t.t.t.t.t.t.t.t.t.t.u.h.b.b.b.N.8.8.8.b.9.8.b.b.b.b.b.b.b.b.b.b.b.b.b.b.b.b.N.N.b.b.4.+ @ 2 C T E E %.<.y.t.t.t.t.t.t.t.t.t.",
"t.t.t.t.t.t.t.t.t.t.t.t.t.h.b.b.b.8.> # > 8.b > 8.b.b.b.b.b.b.b.b.b.b.b.N.N.b.b.N.b.b.b.8.# @ < 2 j E E %.<.y.t.t.t.t.t.t.t.t.t.",
"t.t.t.t.t.t.t.t.t.t.t.t.t.h.b.b.3.s c > # 8.3.g g *.g.b *.g.b *.g.b g g g g b 9.3.b 8.N.h.c g h 2 9 j T %.<.y.t.t.t.t.t.t.t.t.t.",
"t.t.t.t.t.t.t.t.t.t.t.u.t.h.b.b.g o U x > 8.9.U + g 8.# g 8.% 2 +.> o   + % > 8.s + 8.N.c.s.t.' s 9 a R -.5.y.t.t.t.t.t.t.t.t.t.",
"t.t.t.t.t.t.t.t.t.t.t.t.t.h.b.b.g   + g 8.c.b +   g 8.@ g 8.# X > +.2 + U 8.8.b.c + 8.b.x.7.6.t.;.' ;.r.t.y.t.t.t.t.t.t.t.t.t.t.",
"t.t.t.t.t.t.t.t.t.t.t.t.t.a.x.c.3.g e 5.b.b.5.e g 3.8.b *.8.#   + 8.8.g g *.b.b.c # 8.b.c.0.6.t.t.t.y.t.t.t.t.u.t.t.t.t.t.t.t.t.",
"t.t.t.i.t.t.t.t.t.t.t.t.u.1.0.x.b.b.b.b.b.b.N.c.b.b.N.N.b.8.> # > 8.b.8.5 b b.b.b 5 9.b.c.q.5.t.t.t.t.t.t.t.t.t.t.t.t.t.t.t.t.t.",
"t.t.t.t.t.t.t.t.t.t.t.t.y.6.0.x.b.b.b.b.b.b.b.c.b.b.b.b.b.b.8.8.8.b.b.b.8.g.b.b.9.8.b.b.b.c.h.y.t.t.t.t.t.t.t.t.t.t.t.t.t.t.t.t.",
"t.t.t.u.t.t.t.t.t.t.t.t.t.y.a.j.b.b.N.b.N.b.c.N.b.b.b.b.b.b.b.b.b.b.b.b.b.b.b.b.b.N.b.b.b.b.z.y.y.t.t.t.t.t.i.t.t.t.t.t.t.t.t.t.",
"t.t.t.t.t.t.t.t.t.t.u.t.t.t.y.f.b.b.N.9.8.g.N.N.8.g.b.b.g.8.g.b.b.b.b.b.b.b.b.b.b.b.b.b.b.b.w.<.y.t.t.t.t.t.t.t.t.t.t.t.t.t.t.t.",
"t.t.t.t.t.t.t.t.t.t.t.t.t.t.t.e.8.N.b.b > 8.N.8.> b b.b.b > 8.b.b.b.b.b.b.b.b.b.b.b.b.b.b.b.w.<.y.t.t.t.t.t.t.t.t.t.t.t.u.t.t.t.",
"t.t.t.t.t.t.t.t.t.t.t.t.t.t.r.e.*.9.9.g # 5.P e o > b g.g o e 8.g.b *.g.b *.b.b.+.b g.b.b.b.x.d.u.t.t.t.t.t.t.t.t.t.t.t.t.t.t.t.",
"t.t.u.t.t.t.t.t.t.t.t.t.t.t.r.e.&.<.<.q O  .q     . , 5.x O   g 8.> g U + e 9.g.v > +.9.N.N.b.j.t.t.t.t.t.t.t.t.t.t.t.t.t.t.t.t.",
"t.t.i.t.t.t.t.t.t.t.t.t.t.t.t.t.6.<.<.q O  .q     8 ..<.$.z O a 5.X.a +   X > #.7.+.> b b.b.b.g.` r.t.t.t.t.t.t.t.t.t.t.t.t.t.t.",
"t.t.t.t.t.t.t.t.t.t.t.t.t.t.t.t.4.:.&.V r ! V 6 0 [ <.<.<.#.f [ 0.0.] 2 . = f #.0.>.O - v 7.w.9.) ` t.t.t.t.t.t.t.t.t.t.t.t.t.t.",
"t.t.t.t.t.t.t.t.t.t.t.t.t.u.u.u.u.t.` ) ^ S S D >.>.>.<.>.>.,.,.5.$.$.{ - f <.<.<...- O -  .<.$._ r.t.t.t.t.t.t.t.t.t.t.t.t.t.t.",
"t.t.t.t.t.t.t.t.t.t.r.e.g.c.b.j.b.c.j.g.8.s 2 a D ~ ~ ~ ) ~ ~ ^ ~ ~ %.<...#.<.<.<.<... ...$.<.<.<.4.t.t.t.t.t.t.t.t.t.t.t.t.t.t.",
"t.t.t.t.t.t.t.t.t.e.i.l.F.H.H.H.H.H.H.K.C.@.P P 3.t.y.y.3.t.3.L g g G %.%.%.%.&.%.%.%.>.<.<.<.<.<.:.e.t.t.t.t.t.t.t.u.t.t.t.t.t.",
"t.t.t.t.t.t.t.t.i.r.S.U.U.U.U.U.U.U.U.U.I.Z.B.B.B.B.N.B.B.B.B.@.3 i v ) ) ) ~ ) W S S ! $.<.>.>.>.%.) t.t.t.t.t.t.t.t.t.t.t.t.t.",
"t.t.t.t.t.t.t.t.i.G.I.U.U.U.U.U.U.U.U.U.U.I.I.I.I.I.I.I.I.I.P.C.9.9.9.j.j.g.j.j.J 2 2 k ~ ~ ~ ~ ~ %.,.y.t.t.t.t.t.t.t.t.t.t.t.t.",
"t.t.t.t.t.t.t.t.p.I.U.U.U.U.U.U.U.U.U.U.U.U.U.U.U.U.U.U.U.U.U.P.H.H.H.H.H.H.H.H.g.P } o.( W E E E %.2.y.u.t.t.t.t.t.t.t.t.t.t.t.",
"t.t.t.t.t.t.t.t.k.L.U.U.U.U.U.U.U.U.U.U.U.U.U.U.U.U.U.U.U.U.U.U.U.U.U.U.U.U.U.U.K.b.9.>.O.Q W E E %.<.y.t.t.t.t.t.t.t.t.t.t.t.t.",
"t.t.t.t.t.t.t.t.k.L.U.U.U.U.U.U.U.U.U.U.U.U.U.U.U.U.U.U.U.U.U.U.U.U.U.U.U.U.U.U.I.V.7 : p #.%.E E %.<.y.t.t.t.t.t.t.t.t.t.t.t.t.",
"t.t.t.t.t.t.t.t.p.Z.Z.Z.F.H.H.H.H.K.U.U.U.U.U.U.U.U.U.U.U.U.U.U.U.U.U.U.U.U.U.U.U.D.% @ 3 ..| f y | 2.y.t.t.t.t.t.t.t.t.t.t.t.t.",
"t.t.t.t.t.t.t.t.u.N.N.N.b.b.b.b.b.B.K.I.I.I.I.I.I.I.I.I.I.I.I.I.I.U.U.U.U.U.U.U.U.D.* @ s #.l - < m <.6.t.t.t.t.t.t.t.t.t.i.u.t.",
"t.t.t.t.t.t.t.t.u.g.c.N.b.b.b.b.b.b.B.B.B.B.B.B.B.B.M.B.B.B.B.B.Z.I.U.U.U.U.U.U.U.D.* 4 K >.a o - ] <.y.t.t.t.t.t.t.t.t.t.t.t.t.",
"t.t.t.t.t.t.t.t.u.N.N.N.b.N.b.b.b.b.n.b.b.b.b.b.b.b.b.b.b.b.b.b.B.H.H.H.H.H.H.H.H.l.u V %.-.0 X e G -.y.t.t.t.t.t.t.t.t.t.t.t.t.",
"t.t.t.t.t.t.t.t.u.9.w.w.c.c.c.v.c.c.c.c.c.c.c.x.c.c.c.b.b.b.b.n.b.b.b.b.b.b.b.b.b.g.F G | D 6 & S ^ ^ r.t.t.t.t.t.t.t.t.t.t.t.t.",
"t.t.t.t.t.t.t.t.3.d { 0.0.0.0.0.7.0.0.7.0.0.0.0.0.0.q.c.b.b.b.c.n.c.b.b.b.c.b.b.N.4.- O @ 1 y T &.%.E t.t.t.t.t.t.t.t.t.t.t.t.t.",
"t.t.t.t.t.t.t.t.y.H n ] $.<.<.<.<.<.&.%.%.%.%.%.%.%.%.y.8.w.z.w.w.w.z.z.z.w.z.z.w.2.h 0 6 y S ~ >.:.` t.t.t.t.t.t.t.t.t.t.t.t.t.",
"t.t.t.t.t.t.t.t.t.t.H d #.<.<.<.$.O.D Y S W W ~ ~ ~ W ~ %.,.,.,.>.,.>.,.>.>.,.<.<.<.<.&.W W E ~ ,.6.t.t.t.t.t.t.t.t.t.t.t.t.t.t.",
"t.t.t.t.t.t.t.t.t.t.;.' y.y.y.y.J 3 2 2 p ..,.,.,.,.,.,.%.~ ~ W ~ ~ ~ ~ ~ ~ Q <.<.<.<.<.&.W E ~ ,.1.t.t.t.t.t.t.t.t.t.t.t.t.t.t.",
"t.t.t.t.t.t.t.t.t.t.t.t.t.t.t.t.( v M M H :.6.4.6.6.=.N h g g G %.%.%.%.%.~ W ( %.%.%.%.( W Q -.1.y.t.t.t.t.t.t.t.t.t.t.t.t.t.t.",
"t.t.t.t.t.t.t.t.t.t.t.t.t.t.t.t.t.t.t.t.y.t.t.t.t.y.;.s w 3 2 N <.<.2.<.<.%.W ^ W ^ W ^ E E -.2.y.y.t.t.t.t.t.t.t.t.t.t.t.t.t.t.",
"t.t.u.t.t.t.t.t.t.t.t.t.t.t.t.t.t.t.t.t.t.t.t.t.t.t.t.;.' ' ' 3.y.y.y.y.y.t.t.r.t.r.t.t.t.t.y.u.y.t.t.t.t.t.t.t.t.t.t.t.t.t.u.i.",
"t.t.u.i.t.t.t.t.t.t.t.t.t.t.t.t.t.t.t.t.t.t.t.t.t.t.t.t.t.t.y.y.t.t.t.u.t.t.t.t.t.t.t.t.t.t.t.t.t.t.t.t.t.t.t.t.t.t.t.t.t.t.t.t.",
"t.t.t.t.t.t.t.t.t.t.t.t.t.t.t.t.t.t.t.t.t.t.t.t.t.t.t.t.t.t.t.t.t.t.t.t.t.t.t.t.t.t.t.t.t.t.t.t.t.t.t.t.t.t.u.u.t.t.t.t.t.t.t.t.",
"t.t.t.t.t.t.t.t.t.t.t.t.t.t.t.t.t.t.t.t.t.t.t.t.t.t.t.r.t.r.t.t.t.t.t.t.t.t.t.t.t.t.t.t.t.t.t.t.t.t.t.t.t.t.i.t.t.t.t.t.t.t.t.t.",
"t.t.t.t.t.t.t.t.t.t.t.t.t.t.t.t.t.t.t.t.t.t.t.t.t.t.t.t.t.t.t.t.t.t.t.t.t.t.t.t.t.t.t.t.t.t.t.t.t.t.t.t.t.t.t.t.t.t.t.t.t.t.t.t.",
"t.u.t.t.t.t.t.t.t.t.t.t.t.t.t.t.t.t.t.t.t.t.t.t.t.t.t.t.t.t.t.t.t.t.t.t.t.t.t.t.t.t.t.t.t.t.t.t.t.t.t.t.t.t.t.t.t.t.t.t.t.t.t.t.",
"t.t.t.t.t.t.t.t.t.t.t.u.t.t.t.t.t.t.t.t.t.t.t.t.t.t.t.t.t.t.t.t.t.t.t.t.t.t.t.t.t.t.t.t.t.t.t.t.t.t.t.t.t.t.t.t.t.t.u.t.t.t.t.t.",
"t.t.t.t.t.t.t.t.t.t.t.t.t.t.t.t.t.t.t.t.t.t.t.t.t.t.t.t.t.t.t.t.t.t.t.t.t.t.t.t.t.t.t.t.t.t.t.t.t.t.t.t.t.t.t.t.t.t.t.t.t.t.t.t.",
"t.t.t.t.t.t.t.t.i.t.t.t.t.t.t.t.t.t.t.t.t.t.t.t.t.t.t.t.t.t.t.t.t.t.t.t.t.t.t.t.t.t.t.t.t.t.t.t.t.t.t.t.t.t.t.t.t.t.t.t.t.t.t.t.",
"t.t.t.t.t.t.t.t.t.t.t.t.t.t.t.t.t.t.t.t.t.t.t.t.t.t.t.t.t.t.t.t.t.t.t.t.t.t.t.t.t.t.t.t.t.t.t.t.t.t.t.t.t.t.t.t.t.t.t.t.t.t.t.t."
};
