/* XPM */
static char *result[] = {
/* columns rows colors chars-per-pixel */
"64 64 212 2 ",
"   c #12352E",
".  c #19352D",
"X  c #163C33",
"o  c #1D3D39",
"O  c #1B2B26",
"+  c #222A25",
"@  c #342622",
"#  c #21392E",
"$  c #472926",
"%  c #532F2C",
"&  c #522C25",
"*  c #5A332A",
"=  c #5C3734",
"-  c #41373A",
";  c #663C2B",
":  c #643B36",
">  c #673C37",
",  c #164131",
"<  c #1B453C",
"1  c #1C4D3D",
"2  c #194736",
"3  c #1D523B",
"4  c #1F5C3B",
"5  c #21533E",
"6  c #25673E",
"7  c #2D783B",
"8  c #684438",
"9  c #784839",
"0  c #7A5439",
"q  c #1E5340",
"w  c #274542",
"e  c #334D4C",
"r  c #215B42",
"t  c #2A544B",
"y  c #2B594A",
"u  c #32514E",
"i  c #355C56",
"p  c #3D5C52",
"a  c #3D5959",
"s  c #2F5652",
"d  c #246443",
"f  c #266C44",
"g  c #296E43",
"h  c #2E674E",
"j  c #277145",
"k  c #2A7443",
"l  c #2E7A44",
"z  c #327949",
"x  c #346C54",
"c  c #3A615C",
"v  c #3A6B5B",
"b  c #366656",
"n  c #3B7C53",
"m  c #397457",
"M  c #33664A",
"N  c #3F6D61",
"B  c #554444",
"V  c #415A5A",
"C  c #5B5354",
"Z  c #655857",
"A  c #4C605D",
"S  c #416456",
"D  c #41795C",
"F  c #675F61",
"G  c #446365",
"H  c #446C65",
"J  c #4D6667",
"K  c #447B63",
"L  c #4D736E",
"P  c #477865",
"I  c #54746D",
"U  c #4F6F72",
"Y  c #556B72",
"T  c #4F7670",
"R  c #547376",
"E  c #5E757E",
"W  c #597B7B",
"Q  c #577678",
"!  c #546969",
"~  c #61716F",
"^  c #667976",
"/  c #75767A",
"(  c #6E6769",
")  c #88573B",
"_  c #91593F",
"`  c #92643E",
"'  c #975E40",
"]  c #9B6541",
"[  c #AA7848",
"{  c #358A3E",
"}  c #32833D",
"|  c #3E9C3D",
" . c #39933C",
".. c #3EA03B",
"X. c #409F36",
"o. c #40A23C",
"O. c #44AA38",
"+. c #49B535",
"@. c #2F8243",
"#. c #318244",
"$. c #368C46",
"%. c #399443",
"&. c #3C8155",
"*. c #488858",
"=. c #499658",
"-. c #42874E",
";. c #51AE49",
":. c #53A555",
">. c #4A8865",
",. c #53896A",
"<. c #549465",
"1. c #5A8577",
"2. c #5D9775",
"3. c #618A7D",
"4. c #62967B",
"5. c #70857F",
"6. c #60AF63",
"7. c #6CB075",
"8. c #627C83",
"9. c #6D7B82",
"0. c #6A7F8B",
"q. c #668486",
"w. c #6B848C",
"e. c #6A8C8A",
"r. c #678786",
"t. c #758381",
"y. c #75868E",
"u. c #758A8D",
"i. c #6B9386",
"p. c #719A8D",
"a. c #748C96",
"s. c #778D99",
"d. c #7A8E96",
"f. c #7B929C",
"g. c #7C9A9B",
"h. c #759394",
"j. c #74A38C",
"k. c #75A788",
"l. c #7DA299",
"z. c #77B086",
"x. c #7E95A0",
"c. c #848588",
"v. c #828D93",
"b. c #8A9393",
"n. c #8C989E",
"m. c #879499",
"M. c #939B9E",
"N. c #83AA9A",
"B. c #86B795",
"V. c #8197A2",
"C. c #849BA5",
"Z. c #889FA9",
"A. c #899EA5",
"S. c #909CA2",
"D. c #8CA2AB",
"F. c #8EAAAB",
"G. c #8CA7A7",
"H. c #9DA4A4",
"J. c #9BA9AE",
"K. c #94A5AA",
"L. c #8AB4A3",
"P. c #93B6AC",
"I. c #94AAB3",
"U. c #9FADB2",
"Y. c #96B4B1",
"T. c #9BBCB4",
"R. c #9CB2B9",
"E. c #9EB8B8",
"W. c #A9AEB0",
"Q. c #A3B1B6",
"!. c #A3B6BC",
"~. c #ABB6BA",
"^. c #ADBABE",
"/. c #A4BDBC",
"(. c #B3B6B5",
"). c #B6BDBF",
"_. c #B8BABC",
"`. c #90CB95",
"'. c #9BC6AC",
"]. c #9FC2B6",
"[. c #A4C7B8",
"{. c #A3D6A9",
"}. c #A5BBC2",
"|. c #A8BEC5",
" X c #B4BFC3",
".X c #ACC2C8",
"XX c #ACC8C3",
"oX c #BDC1C2",
"OX c #B1C6CB",
"+X c #B5CBCE",
"@X c #B1C0C4",
"#X c #B4D7C6",
"$X c #B9CED3",
"%X c #B6CBD0",
"&X c #BDD3D6",
"*X c #BBE2C5",
"=X c #C7C7C7",
"-X c #C1D2D5",
";X c #C2D7DA",
":X c #C6DBDD",
">X c #C3DAD8",
",X c #CADFE1",
"<X c #CFE3E4",
"1X c #D3E7E8",
"2X c #D6EAEB",
"3X c #DAECED",
"4X c #D1E4E6",
"5X c #DDEFF0",
"6X c #E2F3F3",
"7X c #E8F7F7",
"8X c #EDFBFB",
"9X c #F2FFFF",
/* pixels */
"=X=X=X=X=X=X=X=X=X=X=X=X=X=X=X=X=X=X=X=X=X=X=X=X=X=X=X=X=X=X=X=X=X=X=X=X=X=X=X=X=X=X=X=X=X=X=X=X=X=X=X=X=X=X=X=X=X=X=X=X=X=X=X=X",
"=X=X=X=X=X=X=X=X=X=X=X=X=X=X=X=X=X=X=X=X=X=X=X=X=X=X=X=X=X=X=X=X=X=X=X=X=X=X=X=X=X=X=X=X=X=X=X=X=X=X=X=X=X=X=X=X=X=X=X=X=X=X=X=X",
"=X=X=X=X=X=X=X=X=X=X=X=X=X=X=X=X=X=X=X=X=X=X=X=X=X=X=X=X=X=X=X=X=X=X=X=X=X=X=X=X=X=X=X=X=X=X=X=X=X=X=X=X=X=X=X=X=X=X=X=X=X=X=X=X",
"=X=X=X=X=X=X=X=X=X=X=X=X=X=X=X=X=X=X=X=X=X=X=X=X=X=X=X=X=X=X=X=X=X=X=X=X=X=X=X=X=X=X=X=X=X=X=X=X=X=X=X=X=X=X=X=X=X=X=X=X=X=X=X=X",
"=X=X=X=X=X=X=X=X=X=X=X=X=X=X=X=X=X=X=X=X=X=X=X=X=X=X=X=X=X=X=X=X=X=X=X=X=X=X=X=X=X=X=X=X=X=X=X=X=X=X=X=X=X=X=X=X=X=X=X=X=X=X=X=X",
"=X=X=X=X=X=X=X=X=X=X=X=X=X=X=X=X=X=X=X=X=X=X=X=X=X=X=X=X=X=X5.=X=X/ =X=X=X=X=X=X=X=X=X=X=X=X=X=X=X=X=X=X=X=X=X=X=X=X=X=X=X=X=X=X",
"=X=X=X=X=X=X=X=X=X=X=X=X=X=X=X=X=X=X=X=X=X=X=X=X=X=X=XH.(.S 6 b.^ 6 V H.H.=X=X=X=X=X=X=X=X=X=X=X=X=X=X=X=X=X=X=X=X=X=X=X=X=X=X=X",
"=X=X=X=X=X=X=X=X=X=X=X=X=X=X=X=X=X=X=X=X=X=X=X=XW.9.9.y.J 6 <.^ 7 j K.S.5.H.=X=X=X=X=X=X=X=X=X=X=X=X=X=X=X=X=X=X=X=X=X=X=X=X=X=X",
"=X=X=X=X=X=X=X=X=X=X=X=X=X=X=X=X=X=X=X=X=X=X=XW.y.A.!.:XR.<.[.XX .k.4X,Xg.p 9.9.9.=X=X=X=X=X=X=X=X=X=X=X=X=X=X=X=X=X=X=X=X=X=X=X",
"=X=X=X=X=X=X=X=X=X=X=X=X=X=X=X=X=X=X=X=X=XH.y.K.2X2X3X8X3X/.D *.| 1.4X2X1X1X-X$XOXy._.=X=X=X=X=X=X=X=X=X=X=X=X=X=X=X=X=X=X=X=X=X",
"=X=X=X=X=X=X=X=X=X=X=X=X=X=X=X=X=X=X=X=Xb.A.OX7X7X1X1.T.Y.n #.o.$.f ,.2.1X6X8X3X,X!.y.=X=X=X=X=X=X=X=X=X=X=X=X=X=X=X=X=X=X=X=X=X",
"=X=X=X=X=X=X=X=X=X=X=X=X=X=X=X=X=X=X=Xt.V.-X1X6X<XY.;.7 -.#X1X5X5XL.6.%.XX1X6X1X1X.Xd.H.=X=X=X=X=X=X=X=X=X=X=X=X=X=X=X=X=X=X=X=X",
"=X=X=X=X=X=X=X=X=X=X=X=X=X=X=X=X=X=X5.D I..X,X$XY.m =.'.#X4X8X9X8X3X>X[.N.1.1X1X1X}.F.y H.=X=X=X=X=X=X=X=X=X=X=X=X=X=X=X=X=X=X=X",
"=X=X=X=X=X=X=X=X=X=X=X=X=X=X=X=X=X(.b.I q.h.m.4.-.T.1X8X8X6X8X9X9X9X3X3X5X`.+X,X%XF.b 6 ^ H.=X=X=X=X=X=X=X=X=X=X=X=X=X=X=X=X=X=X",
"=X=X=X=X=X=X=X=X=X=X=X=X=X=X=X=X=XS 1.2XXXl { :.T.<X8X9X9X8X9X9X9X9X8X8X8X7X&XR.I.*.{ %.7 M V =X=X=X=X=X=X=X=X=X=X=X=X=X=X=X=X=X",
"=X=X=X=X=X=X=X=X=X=X=X=X=X=X=X(.c R p.%XXX....I.%X1X8X9X9X8X3X7X9X9X7X8X9X9X7XN.x =.#X[.2.>.4 t.=X=X=X=X=X=X=X=X=X=X=X=X=X=X=X=X",
"=X=X=X=X=X=X=X=X=X=X=X=X=X=X=X(.I 3X#XL x 7 o.Y.OX,X1X5X5X2X1X1X3X8X7X6X9X9X7X1XY.k.6X8X1XE.b t.=X=X=X=X=X=X=X=X=X=X=X=X=X=X=X=X",
"=X=X=X=X=X=X=X=X=X=X=X=X=X=XW.0.OX<XP.;.#X*X;.D g.}.:X<X1X8X3X1X7X9X9X9X3X4X1X,X+X>.%X5X,X.X,.h H.=X=X=X=X=X=X=X=X=X=X=X=X=X=X=X",
"=X=X=X=X=X=X=X=X=X=X=X=X=XW.y..X,XP.n 2.<X3X4.l z ,.%X<X8X9X9X3X8X9X9X9X,X.X%X!.I.j v %X.Xg.x d ~ m.=X=X=X=X=X=X=X=X=X=X=X=X=X=X",
"=X=X=X=X=X=X=X=X=X=X=X=X=X/ w.}..XN.o. .4.j.#.O.+.k.$X1X3X8X6X4X8X9X9X9X7XN.i.i.*...;.*.p.g <.l.:XI.b.=X=X=X=X=X=X=X=X=X=X=X=X=X",
"=X=X=X=X=X=X=X=X=X=X=X=Xt.3 b F.I.v l #.k o.+.+.+.j..X<X1X3X4X>X1X5X9X9X2X$X ...+.+.`.z.l <.<X7X3X!.v.n.=X=X=X=X=X=X=X=X=X=X=X=X",
"=X=X=X=X=X=X=X=X=X=X=X(.p 2 i T h l *..X,X#X=.$.%.i.I..X:X:X|./..X4X1X1X<X%Xp.| ..6.&XXX>.2.<X3X+XR.D.9.=X=X=X=X=X=X=X=X=X=X=X=X",
"=X=X=X=X=X=X=X=X=X=X=X(.p 1 g.+XXX=.F.$X6X8X7.;...*.D./..X.XJ.3.q..X1X;X%X.Xp.#.$.$.<.m j &.P.+XR.Z.0.W.=X=X=X=X=X=X=X=X=X=X=X=X",
"=X=X=X=X=X=X=X=X=X=X=X=XH.5.u.}.E.>.R.+X<X6X<X| #.g *.i.e.e.i.7.k.m.}..X|.I.n 2.&.=.#X].x j q a.Z.w.9.=X=X=X=X=X=X=X=X=X=X=X=X=X",
"=X=X=X=X=X=X=X=X=X=X=X(.V 3 i.e.N <.Z..X&X1XXX#.d j ;.-.7 g N.5X[.r.g.R.F.e.`.5XL.j.#X].N d q i q.L X H.=X=X=X=X=X=X=X=X=X=X=X=X",
"=X=X=X=X=X=X=X=X=X=X=Xp 1 v I.3.f h a.R..X;X2.d f %.[.[.$.$.!.,X$X2.z >.m j.7X9X8X&X|.N f >.>.d q w r A =X=X=X=X=X=X=X=X=X=X=X=X",
"=X=X=X=X=X=X=X=X=X=X=Xb.w Z.|..X1.f j h.E.;XN.T.7X{.D *.{.'.D F.F.=.#. .o.p.3X7X3X<X+Xl.#.G.g.j f m S H.=X=X=X=X=X=X=X=X=X=X=X=X",
"=X=X=X=X=X=X=X=X=X=X=Xc W D.I.f.m #.$.g..X1X6X8X9X5X>.'.6X7Xz.*.&.| %.j #.f 1X1X&X+XE.e.j h y q d L.}.9.W.=X=X=X=X=X=X=X=X=X=X=X",
"=X=X=X=X=X=X=X=X=X=X=X~ < S.}.|.k.@.i.I..X%X<X7X6X4X:X<X<X:XB.$.%.6.2XL.n #X7X;XP.e.q.d q q < w N .X.Xw.M.=X=X=X=X=X=X=X=X=X=X=X",
"=X=X=X=X=X=X=X=X=X=X5.3 Q A.I..XR.1.e.D.}..X%X2X4X;X.X%X+X.X=.$.*.&X3X1XT.3X7X1XT.j l N >.j 1.g.R..XE.s.A =X=X=X=X=X=X=X=X=X=X=X",
"=X=X=X=X=X=X=X=X=X=X=XA ! D.D.D.Z.g.L h.D.}..X.X.X.XR.R.R.h.n 2.m F.:X.XF.$X,X+X.Xe.l G.g.T |.|..XR.D.a.Y =X=X=X=X=X=X=X=X=X=X=X",
"=X=X=X=X=X=X=X=X=X=X=XA y V.A.D.x.}..Xe.h.D.I..X.XR.D.1.H h T.6Xj.v I.r.P |..X|.R.e.q h h N I..XR.Z.x.8.y.=X=X=X=X=X=X=X=X=X=X=X",
"=X=X=X=X=X=X=X=X=X=X5.4 Q a.V.V.x.I.}.Z.N q.x.D.D.h.,.f h g..X&X%Xi.d @.$.T D.D.a.d j P s < U x.Z.x.a.W p =X=X=X=X=X=X=X=X=X=X=X",
"=X=X=X=X=X=X=X=X=X=X=X~ t a.a.c w.Z.Z.w.Q g.R.H N m j j N I..X.X}.D.$.j l k G N t d i..XP.q q R s.a.8.J (.=X=X=X=X=X=X=X=X=X=X=X",
"=X=X=X=X=X=X=X=X=X=X=Xp 3 < X e   Q R 8.!..X.Xl.m P..Xp.m x.I.}.D.a.$.@.d f p..X.Xr.|.|.g.q q 1.R < n.=X=X=X=X=X=X=X=X=X=X=X=X=X",
"=X=X=X=X=X=X=X=X=X=X=X(.b.b.J 9.c q q Z.I..X.XR.D..X.X.XT c D.Z.a.d l $.q d .X.X.XR.I.I.i q q R R 4 p =X=X=X=X=X=X=X=X=X=X=X=X=X",
"=X=X=X=X=X=X=X=X=X=X=X=X=Xv.0.C.Z.q U Z.Z.D.D.I.G.}.R.D.T q m r.q q d >.N l..X.X.XR.x.C.f.X w o 2 3 d p (.=X=X=X=X=X=X=X=X=X=X=X",
"=X=X=X=X=X=X=X=X=X=X=X=X=Xa a.s.U   U x.D.D.Z.s.a.R x.I.T r j d q w K E.R.R.E.R.I.D.f.a.a.v f.G / b.p p (.=X=X=X=X=X=X=X=X=X=X=X",
"=X=X=X=X=X=X=X=X=X=X=X=Xt.1 V Q A ^ G a.x.a.U < q x D.R.h.q m F.D.t c R.}.I.C.D.D.x.a.a.8.r H p b.=X=X=X=X=X=X=X=X=X=X=X=X=X=X=X",
"=X=X=X=X=X=X=X=X=X=X=X=X=Xb.b.W.t.d q c c s   w q W x.C.i q h.}.}.h.N C.Z.x.s.x.f.a.a.V.a.  5 r 3 t.=X=X=X=X=X=X=X=X=X=X=X=X=X=X",
"=X=X=X=X=X=X=X=X=X=X=X=X=X=X=X=XH.2 < q.v o   < q x s.U q w Z.I.I.D.h 8.Z.s.8.c c a.x.Z.Z.J o X , H.=X=X=X=X=X=X=X=X=X=X=X=X=X=X",
"=X=X=X=X=X=X=X=X=X=X=X=X=X=X=X=X=X^ R f.V.V ! b f q   i a.t s.Z.Z.s.d q R Q t N P s Y C.s.8.H.=X=X=X=X=X=X=X=X=X=X=X=X=X=X=X=X=X",
"=X=X=X=X=X=X=X=X=X=X=X=X=X=X=X=X=X, h a.8.J f.n.T X   8.x.c U x.f.G q d H X a.Z.Z.f.G a.a.9._.=X=X=X=X=X=X=X=X=X=X=X=X=X=X=X=X=X",
"=X=X=X=X=X=X=X=X=X=X=X=X=X=X=X=X5.3 p ! W.t g.D.w.a   i e.t X N H X   N x.J Z.Z.Z.x.a.o Y =X=X=X=X=X=X=X=X=X=X=X=X=X=X=X=X=X=X=X",
"=X=X=X=X=X=X=X=X=X=X=X=X=X=X=X=X=Xv.(.=XoXe s.s.f.D.8.x.Z.w., q r U + < N w.s.f.x.a.a.1 b.=X=X=X=X=X=X=X=X=X=X=X=X=X=X=X=X=X=X=X",
"=X=X=X=X=X=X=X=X=X=X=X=X=X=X=X=X=X=X=X=X=X  H a s.V.V.x.x.a.O o v w.C + 8.a.a.a.a.s.0.a p =X=X=X=X=X=X=X=X=X=X=X=X=X=X=X=X=X=X=X",
"=X=X=X=X=X=X=X=X=X=X=X=X=X=X=X=X=X=X=X=Xt.< X 8.8.0.E 8.a.G @ X d t @ @ o 8.8.8.a.0.y.(.(.=X=X=X=X=X=X=X=X=X=X=X=X=X=X=X=X=X=X=X",
"=X=X=X=X=X=X=X=X=X=X=X=X=X=X=X=X=X=X=X).Q.^ Q.Q.m.Y - O < @ $ O 3 @ = % / G a w e s.!.~.=X=X=X=X=X=X=X=X=X=X=X=X=X=X=X=X=X=X=X=X",
"=X=X=X=X=X=X=X=X=X=X=X=X=X=X=X=X=X=X_.Q.Q.^.~.J.m.v.$ @ + $ & $ X % : : = B K.m.K.-X&XQ.~.=X=X=X=X=X=X=X=X=X=X=X=X=X=X=X=X=X=X=X",
"=X=X=X=X=X=X=X=X=X=X=X=X=X=X=X=X=X=X~.^.^.Q.J.Z ; & : : % % : : % : 9 ) : 9 8 b.Q.|.~.Q.Q.oX=X=X=X=X=X=X=X=X=X=X=X=X=X=X=X=X=X=X",
"=X=X=X=X=X=X=X=X=X=X=X=X=X=X=X=X=X XQ.~.^.J.F ` ' * * > > > > 9 : > > ' 0 % B b. XQ.Q.Q.Q.).=X=X=X=X=X=X=X=X=X=X=X=X=X=X=X=X=X=X",
"=X=X=X=X=X=X=X=X=X=X=X=X=X=X=X=X=X=XQ.-X&XQ.( B B Z 8 ' ) & ) ` > [ > * [ [ 8 b.Q.Q.Q.^.Q.).=X=X=X=X=X=X=X=X=X=X=X=X=X=X=X=X=X=X",
"=X=X=X=X=X=X=X=X=X=X=X=X=X=X=X=X=X=X^.~.~.Q.J.J.c.Z [ ` & C 9 [ & ` _ Z * _ 9 c.Q.Q.Q.^.Q.=X=X=X=X=X=X=X=X=X=X=X=X=X=X=X=X=X=X=X",
"=X=X=X=X=X=X=X=X=X=X=X=X=X=X=X=X=X=X=X X~.^.^./ ; ) 8 B b./ ) ] $ 8 [ & m.Z ( Q.~.-X!.Q.oX=X=X=X=X=X=X=X=X=X=X=X=X=X=X=X=X=X=X=X",
"=X=X=X=X=X=X=X=X=X=X=X=X=X=X=X=X=X=X=X=X^.Q.Q.b.Z Z ( K.H.C ] > / B ` * Q.K.J.Q.^.-X~.oX=X=X=X=X=X=X=X=X=X=X=X=X=X=X=X=X=X=X=X=X",
"=X=X=X=X=X=X=X=X=X=X=X=X=X=X=X=X=X=X=X=X=XoX~.Q.W.(.Q.Q.@XK.= 9.H.M.B c.^.^.Q.Q.~.).=X=X=X=X=X=X=X=X=X=X=X=X=X=X=X=X=X=X=X=X=X=X",
"=X=X=X=X=X=X=X=X=X=X=X=X=X=X=X=X=X=X=X=X=X=X=X^.~.oXQ.Q.Q.|.m.J.|.W.n.J.Q.Q.Q.~.oX=X=X=X=X=X=X=X=X=X=X=X=X=X=X=X=X=X=X=X=X=X=X=X",
"=X=X=X=X=X=X=X=X=X=X=X=X=X=X=X=X=X=X=X=X=X=X=X=X=XoX X~.Q.~.Q.Q.|.Q.Q.Q._.=X=X=X=X=X=X=X=X=X=X=X=X=X=X=X=X=X=X=X=X=X=X=X=X=X=X=X",
"=X=X=X=X=X=X=X=X=X=X=X=X=X=X=X=X=X=X=X=X=X=X=X=X=X=X=X=X=X=X=X=X=X=X=X=X=X=X=X=X=X=X=X=X=X=X=X=X=X=X=X=X=X=X=X=X=X=X=X=X=X=X=X=X",
"=X=X=X=X=X=X=X=X=X=X=X=X=X=X=X=X=X=X=X=X=X=X=X=X=X=X=X=X=X=X=X=X=X=X=X=X=X=X=X=X=X=X=X=X=X=X=X=X=X=X=X=X=X=X=X=X=X=X=X=X=X=X=X=X",
"=X=X=X=X=X=X=X=X=X=X=X=X=X=X=X=X=X=X=X=X=X=X=X=X=X=X=X=X=X=X=X=X=X=X=X=X=X=X=X=X=X=X=X=X=X=X=X=X=X=X=X=X=X=X=X=X=X=X=X=X=X=X=X=X",
"=X=X=X=X=X=X=X=X=X=X=X=X=X=X=X=X=X=X=X=X=X=X=X=X=X=X=X=X=X=X=X=X=X=X=X=X=X=X=X=X=X=X=X=X=X=X=X=X=X=X=X=X=X=X=X=X=X=X=X=X=X=X=X=X",
"=X=X=X=X=X=X=X=X=X=X=X=X=X=X=X=X=X=X=X=X=X=X=X=X=X=X=X=X=X=X=X=X=X=X=X=X=X=X=X=X=X=X=X=X=X=X=X=X=X=X=X=X=X=X=X=X=X=X=X=X=X=X=X=X",
"=X=X=X=X=X=X=X=X=X=X=X=X=X=X=X=X=X=X=X=X=X=X=X=X=X=X=X=X=X=X=X=X=X=X=X=X=X=X=X=X=X=X=X=X=X=X=X=X=X=X=X=X=X=X=X=X=X=X=X=X=X=X=X=X"
};
