/* XPM */
static char *result[] = {
/* columns rows colors chars-per-pixel */
"64 64 212 2 ",
"   c gray78",
".  c gray50",
"X  c #5D4947",
"o  c #505050",
"O  c #37110E",
"+  c #DA7972",
"@  c #2D1918",
"#  c #B08695",
"$  c #6A5F72",
"%  c #71403B",
"&  c #777777",
"*  c #978292",
"=  c #B76C79",
"-  c #D3938E",
";  c #979797",
":  c #4C2A27",
">  c #8A2922",
",  c #250B09",
"<  c #665958",
"1  c #531915",
"2  c #484848",
"3  c #AF342B",
"4  c #67403D",
"5  c #C23B3E",
"6  c #2F112E",
"7  c #C43840",
"8  c #892A46",
"9  c #CF3C3E",
"0  c #5C1C17",
"q  c #E64539",
"w  c #872848",
"e  c #AD2F45",
"r  c #C23840",
"t  c #380E1E",
"y  c #932C24",
"u  c #9A2949",
"i  c #C7393F",
"p  c #702027",
"a  c #8C2B46",
"s  c #B03740",
"d  c #B33541",
"f  c #76234A",
"g  c #435D37",
"h  c #376640",
"j  c #305246",
"k  c #2A3B2D",
"l  c #393D3F",
"z  c #681D4E",
"x  c #BB3442",
"c  c #2B4348",
"v  c #732937",
"b  c #421D1B",
"n  c #040505",
"m  c #48112F",
"M  c #C23741",
"N  c #9B3B47",
"B  c #45131C",
"V  c #471227",
"C  c #9F2D37",
"Z  c #681C29",
"A  c #7D2748",
"S  c #0A0B0C",
"D  c #151B1F",
"F  c #325F4F",
"G  c #130712",
"H  c #300C20",
"J  c #3D101D",
"K  c #20272C",
"L  c #51602E",
"P  c #505525",
"I  c #BF7C73",
"U  c #716761",
"Y  c #6F1E2C",
"T  c #060708",
"R  c #0E1215",
"E  c #162C20",
"W  c black",
"Q  c #303316",
"!  c #3D2F27",
"~  c #4E161A",
"^  c #181C26",
"/  c #1B1F21",
"(  c #232C34",
")  c #366E51",
"_  c #766137",
"`  c #13050D",
"'  c #283E42",
"]  c #643E17",
"[  c #336552",
"{  c #5DA442",
"}  c #695B40",
"|  c #3A2B10",
" . c #591D4D",
".. c #7B214C",
"X. c #8D244B",
"o. c #85471B",
"O. c #231317",
"+. c #5C2B1E",
"@. c #150C0E",
"#. c #0E0809",
"$. c #5A2D2F",
"%. c #484C21",
"&. c #787F38",
"*. c #553817",
"=. c #663714",
"-. c #45201F",
";. c #214230",
":. c #336639",
">. c #263118",
",. c #1E0D0C",
"<. c #874536",
"1. c #6D594A",
"2. c #313F3E",
"3. c #0B1514",
"4. c #606346",
"5. c #202020",
"6. c #261D0A",
"7. c #1B0D08",
"8. c #101314",
"9. c #202C2D",
"0. c #2D5346",
"q. c #387450",
"w. c #45884B",
"e. c #325C2A",
"r. c #655F2A",
"t. c #2D1412",
"y. c #7D3833",
"u. c #321614",
"i. c #563529",
"p. c #1C3432",
"a. c #172A28",
"s. c #132321",
"d. c #4F5655",
"f. c #20220F",
"g. c #0B0C0D",
"h. c #233535",
"j. c #60481A",
"k. c #552A2C",
"l. c #30181B",
"z. c #090506",
"x. c #412325",
"c. c #A7A7A7",
"v. c #7B5132",
"b. c #8D5122",
"n. c #541821",
"m. c #511841",
"M. c #711D4F",
"N. c #7C2425",
"B. c #1C0A1B",
"V. c #BE732A",
"C. c #3F4B1E",
"Z. c #2F1615",
"A. c #6E2440",
"S. c #32342F",
"D. c #47593F",
"F. c #8F4725",
"G. c #2D562C",
"H. c #0C0E1C",
"J. c #1A1E23",
"K. c #55252F",
"L. c #603F49",
"P. c #539945",
"I. c #234B2F",
"U. c #284419",
"Y. c #1E391D",
"T. c #2C494B",
"R. c #152020",
"E. c #6B4224",
"W. c #2B4147",
"Q. c #47874A",
"!. c #252718",
"~. c #833D30",
"^. c #AB5130",
"/. c #211026",
"(. c #311F2C",
"). c #26313B",
"_. c #883E32",
"`. c #442013",
"'. c #C6C6C7",
"]. c #433642",
"[. c #46163A",
"{. c #C6C7C7",
"}. c #C6C6C6",
"|. c #C5C6C6",
" X c #2A2B2C",
".X c #99521F",
"XX c #4B221F",
"oX c #3B1C1C",
"OX c #994731",
"+X c #63554F",
"@X c #C3C5C5",
"#X c #C4C6C6",
"$X c #C4C5C6",
"%X c #111415",
"&X c #59433B",
"*X c #140908",
"=X c #C1C3C4",
"-X c #C1C3C5",
";X c #A5A6A6",
":X c #C5C5C6",
">X c #4C4D4D",
",X c #363737",
"<X c #171A1C",
"1X c #3E3015",
"2X c #0A0A11",
"3X c #2B2B45",
"4X c #9B7934",
"5X c #362C23",
"6X c #3A3A40",
"7X c #212134",
"8X c #0F0F19",
"9X c #1A1A29",
/* pixels */
"                                                                                                                                ",
"                                                                                                                                ",
"                                                                                                                                ",
"                                                                                                                                ",
"                                                                                                                                ",
"                                                                                                                                ",
"                                                                                                                                ",
"                                                                                                                                ",
"                                                                                                                                ",
"                                                                                                                                ",
"                                                                                                                                ",
"                                                                                                                                ",
"                                                                                                                                ",
"                                                                                                                                ",
"                                                                                                                                ",
"                                                                                                                                ",
"                                                                                                                                ",
"                                                . X                                                                             ",
"                                                o O +                                                                           ",
"                                                o @   # $                                                                       ",
"                                                  % &     * =                                                                   ",
"                                                  % &         - o ;                                                             ",
"                                                  o :   o o @ > , <                                                             ",
"                                                  o : % , : & 1 ;                                                               ",
"                                                    % 2 3 4 > 5 &                                                               ",
"                                                    % & 6 7 8 9 &                                                               ",
"                                                    o 0 q w e r &                                                               ",
"                                                    o t y 5 u i &                                                               ",
"                                                      % & p a 5 &                                                               ",
"                                                      % & > s d &   . o o                                                       ",
"                                                      o 0 q f i 0 g h j k l                                                     ",
"                                                      o t y z x 0 h c v b n                                                     ",
"                                                        % & m M 0 N B V C 7 > ;                                                 ",
"                                                        % & Z A S D F G H @ &                                                   ",
"                                                        o 0 e J K F L P I U                                                     ",
"                                                        o t Y T R E W Q ! &                                                     ",
"                                                          % W z e e e e 7 0                                                     ",
"                                                          % W z e e e e e 0                                                     ",
"                                                          o ~ ^ / / / ( ) P                                                     ",
"                                                          _ ` ^ / / / ' ) P                                                     ",
"                                                          o ] ^ / / ' [ { P                                                     ",
"                                                          } |  ...X.e e e 0                                                     ",
"                                                          _ o.W O.+.@.O.#.$.&                                                   ",
"                                      %.&.o o o           o *.=.-.;.:.>.,.<.&   o o 1.  . o 2.3.                                ",
"                                      ; & P P P &.&.&.&.4.5.6.7.8.9.0.q.w.e.r.t.y.u.i.p.a.s.d.&                                 ",
"                                                & & & & 4.P P P f.g./ 9.h.h.j.k.l.z.x.& c.                                      ",
"                                                        v.j.b.n.m.M.Z Z Z N.B.2 c.  c.                                          ",
"                                                        } V.C.Z.A.e e e e 9 S.D.                                                ",
"                                                        ; F.G.H.J.K.K.K.L.P.I.U.                                                ",
"                                                          o Y.^ / / / / T.P.R.P.&                                               ",
"                                                          o s.^ / / / ( ) U.z 9 &                                               ",
"                                                          o s.^ / / / ( ) U.O.+.&                                               ",
"                                                          E.H./ / / / W.Q.!.~.^.&                                               ",
"                                                          4 /.(./ / ).F P.O._.^.`.                                              ",
"                                        '.                  ].[...X.e e 9 O.y.^.`.                                              ",
"                                          {.}.|.               X8.W .XXXXXoXy.OX+X                                              ",
"                                              @X#X$X         X/ / %X& &X*X-.u.*X                                                ",
"                                                |.$X  =X-X@X8./ %X;X:X@X  8./ g.                                                ",
"                                                            8./ >X        ,X/ g.                                                ",
"                                                            8./ &         o / g.                                                ",
"                                                          . <X1X            8.g.                                                ",
"                                                          o j.2X          . 8.g.                                                ",
"                                                          o 3X3X&         o 4X5Xo                                               ",
"                                                          ; 6X7X7X6X        8X3X3X9X6X                                          "
};
