/* XPM */
static char *result[] = {
/* columns rows colors chars-per-pixel */
"64 64 226 2 ",
"   c gray78",
".  c #979797",
"X  c #505050",
"o  c #1E1110",
"O  c #250B09",
"+  c #D3938E",
"@  c #A4657D",
"#  c #623733",
"$  c #89828F",
"%  c #806077",
"&  c #71403B",
"*  c #777777",
"=  c #BD8A93",
"-  c #DA7972",
";  c #5D4947",
":  c #37110E",
">  c #4C2A27",
",  c #5C1C17",
"<  c #A7A7A7",
"1  c #8A2922",
"2  c #484848",
"3  c #C13A30",
"4  c #541B29",
"5  c #AF342B",
"6  c #B03740",
"7  c #C0393F",
"8  c #67403D",
"9  c #9D3034",
"0  c #962B47",
"q  c #9E2C46",
"w  c #AD2F45",
"e  c #4E161A",
"r  c #E64539",
"t  c #8A2B46",
"y  c #BA3542",
"u  c #572B30",
"i  c #6D5351",
"p  c #872633",
"a  c #72204C",
"s  c #D13D3D",
"d  c #45131C",
"f  c #CE3F3C",
"g  c #872848",
"h  c #634F53",
"j  c #8B2D44",
"k  c gray50",
"l  c #BE3741",
"z  c #681D4E",
"x  c #DD413B",
"c  c #435D37",
"v  c #376640",
"b  c #305246",
"n  c #2A3B2D",
"m  c #393D3F",
"M  c #55163C",
"N  c gray19",
"B  c #2B4348",
"V  c #732937",
"C  c #421D1B",
"Z  c #040505",
"A  c #5B182C",
"S  c #B9383F",
"D  c black",
"F  c #9B3B47",
"G  c #471227",
"H  c #9F2D37",
"J  c #C43840",
"K  c #91273A",
"L  c #6E1D4E",
"P  c #0A0B0C",
"I  c #151B1F",
"U  c #325F4F",
"Y  c #130712",
"T  c #300C20",
"R  c #2D1918",
"E  c #9A2949",
"W  c #380E1E",
"Q  c #20272C",
"!  c #51602E",
"~  c #505525",
"^  c #BF7C73",
"/  c #716761",
"(  c #5B4C55",
")  c #1C0A1B",
"_  c #681C29",
"`  c #7C2425",
"'  c #2F112E",
"]  c #982849",
"[  c #CF3C3E",
"{  c #1A1023",
"}  c #4D2331",
"|  c #55252F",
" . c #603F49",
".. c #A9824D",
"X. c #0C0E1C",
"o. c #1B1F21",
"O. c #2C494B",
"+. c #90B157",
"@. c #695B40",
"#. c #774921",
"$. c #283E42",
"%. c #336552",
"&. c #99BC54",
"*. c #766137",
"=. c #472314",
"-. c #211026",
";. c #531E3D",
":. c #762E3E",
">. c #7B3F4B",
",. c #895945",
"<. c #BC7245",
"1. c #8D5122",
"2. c #50281E",
"3. c #200C1E",
"4. c #3D101D",
"5. c #531819",
"6. c #4D3D3C",
"7. c #663418",
"8. c #231317",
"9. c #45201F",
"0. c #3F4B1E",
"q. c #180D10",
"w. c #261419",
"e. c #5A2D2F",
"r. c #361C16",
"t. c #686E30",
"y. c #787F38",
"u. c #606346",
"i. c #60481A",
"p. c #9D4B32",
"a. c #1E0D0C",
"s. c #1B2728",
"d. c #346651",
"f. c #45884B",
"g. c #234B2F",
"h. c #2B351E",
"j. c #1B0D08",
"k. c #4D3432",
"l. c #4B221F",
"z. c #996843",
"x. c #1C3432",
"c. c #132321",
"v. c #151819",
"b. c #233535",
"n. c #808F48",
"m. c #53311D",
"M. c #7D3833",
"N. c #552A2C",
"B. c #0B1514",
"V. c #3A2B10",
"C. c #1D0713",
"Z. c #190E1A",
"A. c #0B0C0D",
"S. c #3E3015",
"D. c #0E0809",
"F. c #524244",
"G. c #946224",
"H. c #643E17",
"J. c #703720",
"K. c #611C1E",
"L. c #511841",
"P. c #8B234B",
"I. c #A52C47",
"U. c #FBA443",
"Y. c #7B3E1E",
"T. c #391A14",
"R. c #2A1114",
"E. c #2F1C31",
"W. c #66554C",
"Q. c #3D3418",
"!. c #576733",
"~. c #59433B",
"^. c #442A17",
"/. c #0C0E16",
"(. c #1A1E23",
"). c #232C34",
"_. c #366E51",
"`. c #284419",
"'. c #539945",
"]. c #101314",
"[. c #39112E",
"{. c #C23840",
"}. c #0B0D13",
"|. c #131722",
" X c #150C0E",
".X c #3C1613",
"XX c #261D2D",
"oX c #26313B",
"OX c #632E2E",
"+X c #8E4132",
"@X c #46163A",
"#X c #8D244B",
"$X c #783143",
"%X c #793A48",
"&X c #7F4E49",
"*X c #472C18",
"=X c #A44D30",
"-X c #C6C6C7",
";X c #290C1F",
":X c #3A1717",
">X c #AB5130",
",X c #C6C7C7",
"<X c #C6C6C6",
"1X c #C5C6C6",
"2X c #2A2B2C",
"3X c #1A1013",
"4X c #75392C",
"5X c #6D341F",
"6X c #C3C5C5",
"7X c #C4C6C6",
"8X c #C4C5C6",
"9X c #111415",
"0X c #442013",
"qX c #C1C3C4",
"wX c #C1C3C5",
"eX c gray31",
"rX c #363737",
"tX c #68552D",
"yX c #362C23",
"uX c #3A3A40",
"iX c #1A1A29",
"pX c #2B2B45",
"aX c #212134",
"sX c #202020",
"dX c #9B7934",
"fX c #0F0F19",
/* pixels */
"                                                                                                                                ",
"                                                                                                                                ",
"                                                                                                                                ",
"                                                                                                                                ",
"                                                                                                                                ",
"                                                                                                                                ",
"                                                                                                                                ",
"                                                                                                                                ",
"                                                                                                                                ",
"                                                                                                                                ",
"                                                                                                                                ",
"                                                                                                                                ",
"                                                                                                                                ",
"                                                                                                                                ",
"                                                                                                                                ",
"                                                                                                                                ",
"                                              .                                                                                 ",
"                                            X o                                                                                 ",
"                                            X O + @                                                                             ",
"                                            . # .   $ %                                                                         ",
"                                              & *       = -                                                                     ",
"                                              ; ;       X X : ;                                                                 ",
"                                              X > X : & o , * <                                                                 ",
"                                              . # > 1 2 X 3 *                                                                   ",
"                                                & * 4 5 6 7 *                                                                   ",
"                                                ; 8 9 0 q w *                                                                   ",
"                                                X e r t w y ,                                                                   ",
"                                                . u i p a s d                                                                   ",
"                                                  & * 1 f g h                                                                   ",
"                                                  ; 8 3 j y *   k X X                                                           ",
"                                                  X e l z x * c v b n m                                                         ",
"                                                  . u i M r N v B V C Z                                                         ",
"                                                    & * A S D F d G H J 1 .                                                     ",
"                                                    ; 8 K L P I U Y T R *                                                       ",
"                                                    X e E W Q U ! ~ ^ /                                                         ",
"                                                    . u ( ) A _ _ _ ` 1 .                                                       ",
"                                                      & * ' ] w w w w [ *                                                       ",
"                                                      ; 8 { } | | |  ...*                                                       ",
"                                                      X W X.o.o.o.o.O.+.*                                                       ",
"                                                      @.#.X.o.o.o.$.%.&.*                                                       ",
"                                                      *.=.-.;.V :.>.,.<.*                                                       ",
"                                                      X 1.2.3.T 4.d d 5.6.                                                      ",
"                                  k X .               @.7.7.8.9.0.q.w.e.r.      k         X .                                   ",
"                                  . ~ t.y.y.u.X X X X X i.p.a.s.d.f.g.h.j.X k.l.z.N X x.x.c.*                                   ",
"                                      . * * u.~ ~ ~ ~ y.y.y.y.v.o.b.d.d.n.m.M.N.& B.c.* *                                       ",
"                                                    k V.#.D C.' Z.A.A.A.S.D.q.* F.<                                             ",
"                                                    G.H.J.K.L.P.I.w w w , ,                                                     ",
"                                                  X U.Y.T.R.E.w w w w W.Q.!..                                                   ",
"                                                    ~.^.X./.(.o.o.o.)._.`.'.*                                                   ",
"                                                        X.X.o.o.o.o.)._.`.'.*                                                   ",
"                                                        ].X.o.o.o.o.O.'.[.{.*                                                   ",
"                                                      k }.|.o.o.o.o.O.'. XD.                                                    ",
"                                                      X .XXXo.o.o.oX_.`.OX+X*                                                   ",
"                                                      . O @XL #X$X%X&X*XOX=X*                                                   ",
"                                        -X                . * P ;X4.d :XN.>X*                                                   ",
"                                          ,X<X1X            2Xo.o.3XOX=X4X5X<                                                   ",
"                                              6X7X8X        ].o.9X6.0X0X0X<                                                     ",
"                                                1X8X  qXwX6XeXo.A.1X].o.A.                                                      ",
"                                                            X o.*   rXo.A.                                                      ",
"                                                            2XtX*   X o.A.                                                      ",
"                                                            V.yXuX    ].A.                                                      ",
"                                                            iXpXaX. k ].A.                                                      ",
"                                                            . uXaXaXsXdXyXX                                                     ",
"                                                                . * < fXpXpXiXuX                                                "
};
