/* XPM */
static char *result[] = {
/* columns rows colors chars-per-pixel */
"64 64 256 2 ",
"   c gray78",
".  c #B1B1B1",
"X  c #AD2F45",
"o  c #6F6F6F",
"O  c #080A0A",
"+  c #9A9A9A",
"@  c #43471F",
"#  c #1B1F21",
"$  c gray52",
"%  c gray26",
"&  c #992E26",
"*  c #4D1713",
"=  c #C5C6C6",
"-  c #858D3E",
";  c #140B0D",
":  c #121516",
">  c #8A234C",
",  c #603C39",
"<  c #9A2A47",
"1  c #15181A",
"2  c #7E4741",
"3  c #2A1311",
"4  c #1B0C09",
"5  c #101B1C",
"6  c #3F2321",
"7  c #522423",
"8  c #7A234A",
"9  c #7C2A39",
"0  c #8D254A",
"q  c #020102",
"w  c #C03641",
"e  c #59494A",
"r  c #0D0606",
"t  c #5C1E4B",
"y  c #0B0E0F",
"u  c #7C3631",
"i  c #E54439",
"p  c #26120B",
"a  c #585858",
"s  c #2B2B45",
"d  c #050A09",
"f  c #1F2224",
"g  c #182E18",
"h  c #78382F",
"j  c #351A1F",
"k  c #63302C",
"l  c #232E35",
"z  c #1F272B",
"x  c #3F1E1D",
"c  c #6C1D4E",
"v  c #2D2E14",
"b  c #42722A",
"n  c #1D2428",
"m  c #432224",
"M  c #3B2027",
"N  c #261619",
"B  c #2D4E4E",
"V  c #A02B46",
"C  c #221111",
"Z  c #4C252E",
"A  c #422110",
"S  c #356A51",
"D  c #422A27",
"F  c #CC3D32",
"G  c #C3C5C5",
"H  c #212136",
"J  c #1F3A37",
"K  c #382C12",
"L  c #593936",
"P  c #391A17",
"I  c #AB5130",
"U  c #893F30",
"Y  c #2B4346",
"T  c #254132",
"R  c #654B38",
"E  c #592A1E",
"W  c #87273A",
"Q  c #323136",
"!  c #451E27",
"~  c #293C3F",
"^  c #62553B",
"/  c #50333F",
"(  c #437B4D",
")  c #581D4D",
"_  c #6B605F",
"`  c #1D3417",
"'  c #964D22",
"]  c #6F362E",
"[  c #27363D",
"{  c #391B10",
"}  c #280C15",
"|  c #A72D45",
" . c #6B501D",
".. c #1D0A19",
"X. c #4A2428",
"o. c #731F2E",
"O. c #326252",
"+. c #D43F3C",
"@. c #6C4541",
"#. c #6E2220",
"$. c #2C4C47",
"%. c #B3362C",
"&. c #331410",
"*. c #142A1A",
"=. c #832946",
"-. c #72615F",
";. c #36363C",
":. c #1D1D2E",
">. c #0E0E17",
",. c #9B96A2",
"<. c #5D5D5F",
"1. c #8D2929",
"2. c #090810",
"3. c #875853",
"4. c #682C26",
"5. c #3A3335",
"6. c #6F7243",
"7. c #AA8639",
"8. c #26263B",
"9. c #A64E30",
"0. c #253039",
"q. c #582B2C",
"w. c #6F7634",
"e. c #924633",
"r. c #D3A6A2",
"t. c #9C4931",
"y. c #A04B30",
"u. c #275335",
"i. c #2C2C2C",
"p. c #2E1A1D",
"a. c #21292F",
"s. c #511D4C",
"d. c #3E2743",
"f. c #3C543D",
"g. c #38112A",
"h. c #3B2337",
"j. c #2C112B",
"k. c #723620",
"l. c #681B30",
"z. c #7F2F40",
"x. c #401216",
"c. c #591930",
"v. c #3E2214",
"b. c #316236",
"n. c #213915",
"m. c #30584E",
"M. c #39682E",
"N. c #503F3B",
"B. c #683A3C",
"V. c #340E18",
"C. c #223232",
"Z. c #377050",
"A. c #A0383B",
"S. c #A76525",
"D. c #6F9A4C",
"F. c #412725",
"G. c #C43C3D",
"H. c #6F2449",
"J. c #523714",
"K. c #672021",
"L. c #5E343B",
"P. c #8E4C1C",
"I. c #844948",
"U. c #1C1612",
"Y. c #2F5540",
"T. c #552E11",
"R. c #843E49",
"E. c #61634C",
"W. c #912F44",
"Q. c #264C37",
"!. c #702538",
"~. c #491538",
"^. c #661F19",
"/. c #5A602B",
"(. c #703D39",
"). c #812331",
"_. c #818283",
"`. c #6E7063",
"'. c #595C41",
"]. c #35280E",
"[. c #665E5E",
"{. c #7A622F",
"}. c #3F321E",
"|. c #A57794",
" X c #11211B",
".X c #636B5F",
"XX c #4A2C29",
"oX c #B77086",
"OX c #DF857D",
"+X c #467943",
"@X c #71524F",
"#X c #37403F",
"$X c #BDB7BD",
"%X c #203A2C",
"&X c #814C40",
"*X c #77657C",
"=X c #655345",
"-X c #BBA7B3",
";X c #4F2719",
":X c #152725",
">X c #AA744B",
",X c #426232",
"<X c #5B5C5C",
"1X c #5C2631",
"2X c #C7868E",
"3X c #84461C",
"4X c #BD612C",
"5X c #C3919B",
"6X c #243837",
"7X c #492F3D",
"8X c #834027",
"9X c #5C3D45",
"0X c #252118",
"qX c #65223D",
"wX c #341D33",
"eX c #A95D3F",
"rX c #E37632",
"tX c #3A1017",
"yX c #592117",
"uX c #D46E33",
"iX c #407636",
"pX c #5FA641",
"aX c #83AE52",
"sX c #40734C",
"dX c #716A3A",
"fX c #944341",
"gX c #922948",
"hX c #B4383F",
"jX c #44874B",
"kX c #6B344E",
"lX c #7C9245",
"zX c #74251F",
"xX c #6C1F4D",
"cX c #776547",
"vX c #CBBCBB",
"bX c #954B45",
"nX c #715421",
"mX c #A36F28",
"MX c #A6312F",
"NX c #C63940",
"BX c #9E5B29",
"VX c #916228",
"CX c #75675E",
"ZX c #284B29",
"AX c #5B3A19",
"SX c #BC8831",
"DX c #F89D39",
"FX c #AD7D6D",
"GX c #95635C",
"HX c #613234",
"JX c #B06764",
"KX c #6E6665",
"LX c #3A664A",
"PX c #120611",
"IX c #601A26",
"UX c #5C724A",
/* pixels */
"                                                                                                                                ",
"                                        o                                                                                       ",
"                                      $ L %                                                                                     ",
"                                      $ 4.XXOX                                                                                  ",
"                                      $ p.%   oX|.,.                                                                            ",
"                                      . e @X+   $X,.*X-X                                                                        ",
"                                        % 3.$         5X2Xr.                                                                    ",
"                                        % 3.$           vXr.% %                                                                 ",
"                                        + L e         o % % 4.L o                                                               ",
"                                          D D $ -.4 D @.&.A.% %                                                                 ",
"                                          F.F.I.(.4 D KXa K.o                                                                   ",
"                                          $ 2 : , F , , #.+.%                                                                   ",
"                                          $ 2 % $ c.F F =.< u +                                                                 ",
"                                          + @., -.!.< =.X > & $                                                                 ",
"                                            % & * i H.X X > & $                                                                 ",
"                                            % l.* %.G.V 0 8 & $                                                                 ",
"                                            + ! ] -.K.0 8 W.W ,                                                                 ",
"                                              6 2 $ * A.hXc | * . $ ` *.g <.                                                    ",
"                                              6 2 $ * i 8 0 w %.f.b.LX$.T n o                                                   ",
"                                              $ * * i G.xXV w %.ZXO.Q Z m : %                                                   ",
"                                              $ x.x.i =.> X w * UXR.W.IX^.& u % +                                               ",
"                                              + 7X! u h.> X F &.o.p.y ~.< ).).& ,                                               ",
"                                                $ 2 % % > NX& y 1 ~ Q.PX} HXi.$ .                                               ",
"                                                $ 2 % % gX< O n $.Y.w.@ JXFXo                                                   ",
"                                                + @., / < ~.: [ S *.- /.GXN.                                                    ",
"                                                  % & o.| V.y 5 *.O q v U.U.                                                    ",
"                                                  % l.o.W tXs.t > V X X +.i %                                                   ",
"                                                  + ! 7 _ g.c 0 X X X X X +.%                                                   ",
"                                                    6 6 $ j.qX9 9 9 9 z.R.eXq <X.                                               ",
"                                                    6 6 Q 5 # # # # n [ O.aX} } $                                               ",
"                                                    $ 1.2.# # # f z ~ B ( lXyX, +                                               ",
"                                                    $ c.2.# # a.0.Y B S D.@ k.$                                                 ",
"                                                    ^  .2.wXh./ e e E.E.6.v ] _ .                                               ",
"                                                    $ S...) t 8 > > X X w * (.{ $                                               ",
"                                                    ^  .P.4 ; C p r ; ; r C B.E _                                               ",
"                                                    $ S.A A X.x &.j M M 3 L./ e.{                                               ",
"                          $ $ +                     ^ AXP.4 P Q.iX` N N 3 u L.k p $ $ =X.   + $ $ 5 d                           ",
"                          v - 6.% % % o             $ VXT.T.1 z O.( u.M.r 3 C x 7 7 4 >Xi.% ~ J J 5 d                           ",
"                          + % '.- - - w.@ @ @ @ @ @ a  .p p 1 # # 6X$.S Z.D.nXX.h u 3 2 :XJ #X% %                               ",
"                              . $ $ $ `.@ @ @ @ @ @ - - - - /.O # # n C.C.7.; M X.3 r B.a $ .                                   ",
"                                      . $ $ $ $ $ $ @ @ @ @ v q O O O O O K q ; ; ^.a N..                                       ",
"                                                    CXSXJ.BX#.H.s.) t c < MX....V.& q                                           ",
"                                                    J.DXA A e t c 0 < < w * ) 0 | & dXo                                         ",
"                                                    $ mX' M.l # # 1X9 z.bXv.t !.9 fXv.%                                         ",
"                                                    . R k.T l # # # # l sXn.8.# # Y.g ,X+                                       ",
"                                                        ` f.# # # # f [ ( n.d.Z Z 9XN u.$                                       ",
"                                                         XY # # # # z B b.0Xj.8 V w * T $                                       ",
"                                                      % +Xz # # # # l m.b j 3 4 ; ; ; %X.X                                      ",
"                                                      % &X0.# # # a.B Z.b 7 ] m q.q.M g g                                       ",
"                                                      o 1.W d.7XY m.S jXb m m h y.t.k 5 5                                       ",
"                                                        p j g.8 kXI.cXpXb N Z t.I 9.U P P                                       ",
"                                                        R 4X8X{ 3 zX& & #.x k U 9.I e.j r                                       ",
"                                                        . R 3XrXuX' 7 4 C U y.k h I h 7 [.                                      ",
"                                                        . Q 1 O ' E % % + % q ;Xx E 5.o                                         ",
"                                        =               $ : # # y a       o 1 1 : y $                                           ",
"                                            = =         $ : # # f +       % # # # f +                                           ",
"                                              G = G     $ : # # %         % # # # %                                             ",
"                                                = G   G _.: # # % = = G   % # # # %                                             ",
"                                                          % # O           o 1 # O                                               ",
"                                                          % # O             O # O                                               ",
"                                                          % # O             O # O                                               ",
"                                                          % 7.K             O {.K                                               ",
"                                                          % >.H ;..         ].}.H >.<.$ .                                       ",
"                                                          % s s :.$         2.8.s s H :.;.                                      "
};
