/* XPM */
static char *result[] = {
/* columns rows colors chars-per-pixel */
"64 64 230 2 ",
"   c gray78",
".  c #644643",
"X  c #979797",
"o  c #531915",
"O  c #824944",
"+  c #CEA8A5",
"@  c #442623",
"#  c #777777",
"$  c #C1A3A8",
"%  c #8F6E87",
"&  c #9C9DA2",
"*  c #505050",
"=  c #4C2A27",
"-  c #B17585",
";  c #846A69",
":  c #71403B",
">  c gray50",
",  c #6E211B",
"<  c #2D1918",
"1  c #A7A7A7",
"2  c #652A25",
"3  c #665958",
"4  c gray19",
"5  c #67403D",
"6  c #AF342B",
"7  c #733934",
"8  c #8B2C37",
"9  c #5C1C17",
"0  c #952D45",
"q  c #A23143",
"w  c #9E2C46",
"e  c #BA3542",
"r  c #8A2922",
"t  c #8B2D44",
"y  c #AD2F45",
"u  c #55162D",
"i  c #AC3143",
"p  c #72204C",
"a  c #CE3F3C",
"s  c #842749",
"d  c #973043",
"f  c #B33541",
"g  c #E64539",
"h  c #76234A",
"j  c #C7393F",
"k  c #B03740",
"l  c #85234B",
"z  c #CF3C3E",
"x  c #2D562C",
"c  c #386148",
"v  c #355537",
"b  c #1B2329",
"n  c #541C37",
"m  c #982849",
"M  c #C23741",
"N  c #484920",
"B  c #315D52",
"V  c #552E3A",
"C  c #873132",
"Z  c #0B0C0D",
"A  c #DD413B",
"S  c #4C2F2C",
"D  c #6F1E2C",
"F  c #45131C",
"G  c #5B182C",
"H  c #C43840",
"J  c #A12F2E",
"K  c #83244A",
"L  c #38121B",
"P  c #101314",
"I  c #24393D",
"U  c #162C20",
"Y  c #290C1F",
"T  c #572B30",
"R  c #484848",
"E  c #681C29",
"W  c #A02B47",
"Q  c #283E42",
"!  c #244A33",
"~  c #A8B24E",
"^  c #613537",
"/  c #91695B",
"(  c #1C080B",
")  c #3E112F",
"_  c #681D4E",
"`  c #381D36",
"'  c #55252F",
"]  c #5A2D3B",
"[  c #66554C",
"{  c #553E1F",
"}  c #752127",
"|  c black",
" . c #181C26",
".. c #1B1F21",
"X. c #232C34",
"o. c #366E51",
"O. c #505525",
"+. c #563223",
"@. c #20272C",
"#. c #2E5250",
"$. c #47874A",
"%. c #955D22",
"&. c #481D3E",
"*. c #662439",
"=. c #732937",
"-. c #793A48",
";. c #7D484A",
":. c #8F6143",
">. c #57321D",
",. c #7D5E22",
"<. c #85471B",
"1. c #200C1E",
"2. c #300C20",
"3. c #521F1B",
"4. c #774C1C",
"5. c #663418",
"6. c #663714",
"7. c #53292B",
"8. c #3D1C14",
"9. c #263118",
"0. c #2D181E",
"q. c #361919",
"w. c #793F38",
"e. c #606346",
"r. c #787F38",
"t. c #7F5523",
"y. c #99521F",
"u. c #442013",
"i. c #1E1414",
"p. c #2D5346",
"a. c #387450",
"s. c #336639",
"d. c #325C2A",
"f. c #361C16",
"g. c #4B221F",
"h. c #1E0D0C",
"j. c #66462D",
"k. c #313F3E",
"l. c #1C3432",
"z. c #172A28",
"x. c #080E0D",
"c. c #686E30",
"v. c #B2AB47",
"b. c #A19343",
"n. c #363A1E",
"m. c #202C2D",
"M. c #346651",
"N. c #3D714E",
"B. c #7D6B2C",
"V. c #692F2B",
"C. c #652F2F",
"Z. c #221112",
"A. c #132321",
"S. c #4F5655",
"D. c #3D210C",
"F. c #2B0A1C",
"G. c #1C0A1B",
"H. c #2F112E",
"J. c #261D0A",
"K. c #180D10",
"L. c #514D4E",
"P. c #5F5456",
"I. c #CD8D33",
"U. c #381723",
"Y. c #711D4F",
"T. c #BA7F2E",
"R. c #0C0E1C",
"E. c #81283E",
"W. c #803D4A",
"Q. c #857442",
"!. c #4C3E2A",
"~. c #47593F",
"^. c #6D503C",
"/. c #131722",
"(. c #2C494B",
"). c #539945",
"_. c #234B2F",
"`. c #284419",
"'. c #05060B",
"]. c #7B214C",
"[. c #282831",
"{. c #0C0E16",
"}. c #1A1E23",
"|. c #5C2B1E",
" X c #29130C",
".X c #59201C",
"XX c #211026",
"oX c #994731",
"OX c #130712",
"+X c #5F1D4D",
"@X c #85214D",
"#X c #802C46",
"$X c #783143",
"%X c #9E6141",
"&X c #A44D30",
"*X c #321614",
"=X c #C6C6C7",
"-X c #31141E",
";X c #531819",
":X c #7A382A",
">X c #B35933",
",X c #C6C7C7",
"<X c #C6C6C6",
"1X c #C5C6C6",
"2X c #171A1C",
"3X c #241514",
"4X c #CB6933",
"5X c #FF8933",
"6X c #715E50",
"7X c #C3C5C5",
"8X c #C4C6C6",
"9X c #C4C5C6",
"0X c #592E14",
"qX c #C1C3C4",
"wX c #C1C3C5",
"eX c #767777",
"rX c gray31",
"tX c #757676",
"yX c #151819",
"uX c #3E3015",
"iX c #60481A",
"pX c #1A1A29",
"aX c #2B2B45",
"sX c #3A3A40",
"dX c #202020",
"fX c #11111C",
"gX c #5D491F",
"hX c #785C24",
"jX c #24243A",
"kX c #212134",
/* pixels */
"                                                                                                                                ",
"                                                                                                                                ",
"                                                                                                                                ",
"                                                                                                                                ",
"                                                                                                                                ",
"                                                                                                                                ",
"                                                                                                                                ",
"                                                                                                                                ",
"                                                                                                                                ",
"                                                                                                                                ",
"                                                                                                                                ",
"                                                                                                                                ",
"                                                                                                                                ",
"                                                                                                                                ",
"                                                                                                                                ",
"                                                                                                                                ",
"                                                                                                                                ",
"                                          . X                                                                                   ",
"                                          o O +                                                                                 ",
"                                          @ # $ % &                                                                             ",
"                                          * =     & - $                                                                         ",
"                                          * =         + ; *                                                                     ",
"                                            : # > * . o , < 1                                                                   ",
"                                            : @ 2 < 3 4 5                                                                       ",
"                                            * = 5 6 7 8 9                                                                       ",
"                                            * = * 0 q w e #                                                                     ",
"                                              r r t y y e #                                                                     ",
"                                              u r 6 i p a #                                                                     ",
"                                              * = * s d f #                                                                     ",
"                                              * = * g h j #   * * X                                                             ",
"                                                r r k l z 5 x c v b X                                                           ",
"                                                u r n m M N B V C Z #                                                           ",
"                                                * = * m A S D F G H J 5                                                         ",
"                                                * = * K L P I U Y T R 1                                                         ",
"                                                  r E W P Q ! ~ ^ / 1                                                           ",
"                                                  u E ( ) E E E E r 5                                                           ",
"                                                  * = * _ y y y y y 9                                                           ",
"                                                  * = * ` ' ' ' ] [ {                                                           ",
"                                                    } |  .......X.o.O.                                                          ",
"                                                  > +.|  .....@.#.$.O.                                                          ",
"                                                    %.| &.*.=.-.;.:.>.                                                          ",
"                                                  X ,.<.1.Y 2.F F F 3.X                                                         ",
"                                * *               > 4.5.6.7.8.9.0.q.w.#       X       > *                                       ",
"                                e.O.r.r.r.* * * * X t.y.u.i.p.a.s.d.f.4 * g.h.j.* k.l.z.x.                                      ",
"                                    # # # O.O.O.O.c.v.b.r.n...m.p.M.N.B.V.C.Z.= A.S.# 1                                         ",
"                                                  X 4 D.F.G.H.Z Z Z Z J.K.L.# P.                                                ",
"                                                  > I.%.U.Y.m y y y z r #                                                       ",
"                                                  X T.5.R.E.y y y W.Q.!.~.                                                      ",
"                                                    ^.u./.........(.)._.`.                                                      ",
"                                                    * '. .........(.)._.`.                                                      ",
"                                                    * Z  .......X.o.`.].9                                                       ",
"                                                    [.{.}.......X.o.`.|. X                                                      ",
"                                                    .XXX......@.(.).g.oXu.                                                      ",
"                                                    5 OX+X@X#X$X;.%Xg.&X*X                                                      ",
"                                        =X              # 4 -X2.F ;X:X>X6.                                                      ",
"                                          ,X<X1X        > 2X3XoXoXoX4X5X6X                                                      ",
"                                              7X8X9X    * ....R 0X6.6.6X                                                        ",
"                                                1X9X  qXwXP ..eXrX....tX                                                        ",
"                                                          P Z   X yX..#                                                         ",
"                                                        > 2XuX    P ..#                                                         ",
"                                                        * iXpXX   * ..#                                                         ",
"                                                        * aXaXsX  dX..#                                                         ",
"                                                          # fXaXsXgXhXsXX                                                       ",
"                                                              # # * jXaXkXpXX                                                   "
};
